<?xml version="1.0" encoding="UTF-8" standalone="no"?>
<!DOCTYPE svg PUBLIC "-//W3C//DTD SVG 1.1//EN"
 "http://www.w3.org/Graphics/SVG/1.1/DTD/svg11.dtd">
<!-- Generated by graphviz version 2.43.0 (0)
 -->
<!-- Title: test/unitTest/TEST_DeltaTime_u32/src/DeltaTime_u32.h Pages: 1 -->
<svg width="232pt" height="203pt"
 viewBox="0.00 0.00 232.00 203.00" xmlns="http://www.w3.org/2000/svg" xmlns:xlink="http://www.w3.org/1999/xlink">
<g id="graph0" class="graph" transform="scale(1 1) rotate(0) translate(4 199)">
<title>test/unitTest/TEST_DeltaTime_u32/src/DeltaTime_u32.h</title>
<!-- Node1 -->
<g id="Node000001" class="node">
<title>Node1</title>
<g id="a_Node000001"><a xlink:title=" ">
<polygon fill="#999999" stroke="#666666" points="200,-195 0,-195 0,-165 200,-165 200,-195"/>
<text text-anchor="start" x="8" y="-183" font-family="Helvetica,sans-Serif" font-size="10.00">test/unitTest/TEST</text>
<text text-anchor="middle" x="100" y="-172" font-family="Helvetica,sans-Serif" font-size="10.00">_DeltaTime_u32/src/DeltaTime_u32.h</text>
</a>
</g>
</g>
<!-- Node2 -->
<g id="Node000002" class="node">
<title>Node2</title>
<g id="a_Node000002"><a xlink:href="TEST__DeltaTime__u32_2src_2Sched__Cfg_8h.html" target="_top" xlink:title=" ">
<polygon fill="white" stroke="#666666" points="105.5,-74 28.5,-74 28.5,-55 105.5,-55 105.5,-74"/>
<text text-anchor="middle" x="67" y="-62" font-family="Helvetica,sans-Serif" font-size="10.00">Sched_Cfg.h</text>
</a>
</g>
</g>
<!-- Node1&#45;&gt;Node2 -->
<g id="edge1_Node000001_Node000002" class="edge">
<title>Node1&#45;&gt;Node2</title>
<g id="a_edge1_Node000001_Node000002"><a xlink:title=" ">
<path fill="none" stroke="#63b8ff" d="M95.82,-164.63C89.86,-144.12 78.91,-106.47 72.36,-83.93"/>
<polygon fill="#63b8ff" stroke="#63b8ff" points="75.69,-82.85 69.54,-74.23 68.97,-84.81 75.69,-82.85"/>
</a>
</g>
</g>
<!-- Node4 -->
<g id="Node000004" class="node">
<title>Node4</title>
<g id="a_Node000004"><a xlink:href="TEST__DeltaTime__u32_2src_2Sched__Priv_8h.html" target="_top" xlink:title=" ">
<polygon fill="white" stroke="#666666" points="173,-129 95,-129 95,-110 173,-110 173,-129"/>
<text text-anchor="middle" x="134" y="-117" font-family="Helvetica,sans-Serif" font-size="10.00">Sched_Priv.h</text>
</a>
</g>
</g>
<!-- Node1&#45;&gt;Node4 -->
<g id="edge3_Node000001_Node000004" class="edge">
<title>Node1&#45;&gt;Node4</title>
<g id="a_edge3_Node000001_Node000004"><a xlink:title=" ">
<path fill="none" stroke="#63b8ff" d="M108.23,-164.84C112.91,-156.78 118.82,-146.62 123.8,-138.06"/>
<polygon fill="#63b8ff" stroke="#63b8ff" points="126.91,-139.67 128.91,-129.27 120.85,-136.15 126.91,-139.67"/>
</a>
</g>
</g>
<!-- Node3 -->
<g id="Node000003" class="node">
<title>Node3</title>
<g id="a_Node000003"><a xlink:title=" ">
<polygon fill="#e0e0e0" stroke="#999999" points="126.5,-19 73.5,-19 73.5,0 126.5,0 126.5,-19"/>
<text text-anchor="middle" x="100" y="-7" font-family="Helvetica,sans-Serif" font-size="10.00">stdint.h</text>
</a>
</g>
</g>
<!-- Node2&#45;&gt;Node3 -->
<g id="edge2_Node000002_Node000003" class="edge">
<title>Node2&#45;&gt;Node3</title>
<g id="a_edge2_Node000002_Node000003"><a xlink:title=" ">
<path fill="none" stroke="#63b8ff" d="M72.45,-54.75C77.01,-47.42 83.67,-36.73 89.29,-27.7"/>
<polygon fill="#63b8ff" stroke="#63b8ff" points="92.34,-29.43 94.65,-19.09 86.4,-25.73 92.34,-29.43"/>
</a>
</g>
</g>
<!-- Node4&#45;&gt;Node2 -->
<g id="edge4_Node000004_Node000002" class="edge">
<title>Node4&#45;&gt;Node2</title>
<g id="a_edge4_Node000004_Node000002"><a xlink:title=" ">
<path fill="none" stroke="#63b8ff" d="M123.24,-109.98C113.23,-102.07 98.11,-90.11 86.07,-80.58"/>
<polygon fill="#63b8ff" stroke="#63b8ff" points="87.97,-77.63 77.96,-74.17 83.63,-83.12 87.97,-77.63"/>
</a>
</g>
</g>
<!-- Node4&#45;&gt;Node3 -->
<g id="edge6_Node000004_Node000003" class="edge">
<title>Node4&#45;&gt;Node3</title>
<g id="a_edge6_Node000004_Node000003"><a xlink:title=" ">
<path fill="none" stroke="#63b8ff" d="M131.22,-109.66C125.69,-92.09 113.21,-52.45 105.81,-28.95"/>
<polygon fill="#63b8ff" stroke="#63b8ff" points="109.07,-27.65 102.73,-19.16 102.39,-29.75 109.07,-27.65"/>
</a>
</g>
</g>
<!-- Node5 -->
<g id="Node000005" class="node">
<title>Node5</title>
<g id="a_Node000005"><a xlink:title=" ">
<polygon fill="#e0e0e0" stroke="#999999" points="224,-74 162,-74 162,-55 224,-55 224,-74"/>
<text text-anchor="middle" x="193" y="-62" font-family="Helvetica,sans-Serif" font-size="10.00">stdbool.h</text>
</a>
</g>
</g>
<!-- Node4&#45;&gt;Node5 -->
<g id="edge5_Node000004_Node000005" class="edge">
<title>Node4&#45;&gt;Node5</title>
<g id="a_edge5_Node000004_Node000005"><a xlink:title=" ">
<path fill="none" stroke="#63b8ff" d="M143.48,-109.98C152.2,-102.15 165.34,-90.34 175.9,-80.86"/>
<polygon fill="#63b8ff" stroke="#63b8ff" points="178.25,-83.46 183.35,-74.17 173.57,-78.25 178.25,-83.46"/>
</a>
</g>
</g>
</g>
</svg>
