<?xml version="1.0" encoding="UTF-8" standalone="no"?>
<!DOCTYPE svg PUBLIC "-//W3C//DTD SVG 1.1//EN"
 "http://www.w3.org/Graphics/SVG/1.1/DTD/svg11.dtd">
<!-- Generated by graphviz version 2.43.0 (0)
 -->
<!-- Title: test/unitTest Pages: 1 -->
<!--zoomable 94 -->

<svg id="main" version="1.1" xmlns="http://www.w3.org/2000/svg" xmlns:xlink="http://www.w3.org/1999/xlink" xml:space="preserve" onload="init(evt)">
<style type="text/css"><![CDATA[
.node, .edge {opacity: 0.7;}
.node.selected, .edge.selected {opacity: 1;}
.edge:hover path { stroke: red; }
.edge:hover polygon { stroke: red; fill: red; }
]]></style>

<defs>
  <circle id="rim" cx="0" cy="0" r="7"/>
  <circle id="rim2" cx="0" cy="0" r="3.5"/>
  <g id="zoomPlus">
    <use xlink:href="#rim" fill="#404040"><set attributeName="fill" to="#808080" begin="zoomplus.mouseover" end="zoomplus.mouseout"/></use>
    <path d="M-4,0h8M0,-4v8" fill="none" stroke="white" stroke-width="1.5" pointer-events="none"/>
  </g>
  <g id="zoomMin">
    <use xlink:href="#rim" fill="#404040"><set attributeName="fill" to="#808080" begin="zoomminus.mouseover" end="zoomminus.mouseout"/></use>
    <path d="M-4,0h8" fill="none" stroke="white" stroke-width="1.5" pointer-events="none"/>
  </g>
  <g id="arrowUp" transform="translate(30 24)">
    <use xlink:href="#rim"/>
    <path pointer-events="none" fill="none" stroke="white" stroke-width="1.5" d="M0,-3.0v7 M-2.5,-0.5L0,-3.0L2.5,-0.5"/>
  </g>
  <g id="arrowRight" transform="rotate(90) translate(36 -43)">
    <use xlink:href="#rim"/>
    <path pointer-events="none" fill="none" stroke="white" stroke-width="1.5" d="M0,-3.0v7 M-2.5,-0.5L0,-3.0L2.5,-0.5"/>
  </g>
  <g id="arrowDown" transform="rotate(180) translate(-30 -48)">
    <use xlink:href="#rim"/>
    <path pointer-events="none" fill="none" stroke="white" stroke-width="1.5" d="M0,-3.0v7 M-2.5,-0.5L0,-3.0L2.5,-0.5"/>
  </g>
  <g id="arrowLeft" transform="rotate(270) translate(-36 17)">
    <use xlink:href="#rim"/>
    <path pointer-events="none" fill="none" stroke="white" stroke-width="1.5" d="M0,-3.0v7 M-2.5,-0.5L0,-3.0L2.5,-0.5"/>
  </g>
  <g id="resetDef">
    <use xlink:href="#rim2" fill="#404040"><set attributeName="fill" to="#808080" begin="reset.mouseover" end="reset.mouseout"/></use>
  </g>
</defs>
<script type="application/ecmascript">
var viewWidth = 1639;
var viewHeight = 94;
var sectionId = 'dynsection-0';
</script>
<script type="application/ecmascript" xlink:href="svg.min.js"/>
<svg id="graph" class="graph">
<g id="viewport">
<title>test/unitTest</title>
<g id="clust1" class="cluster">
<title>clusterdir_13e138d54eb8818da29c3992edef070a</title>
<g id="a_clust1"><a xlink:href="dir_13e138d54eb8818da29c3992edef070a.html" target="_top" xlink:title="test">
<polygon fill="#edf0f7" stroke="#404040" stroke-dasharray="5,2" points="8,-8 8,-78 1623,-78 1623,-8 8,-8"/>
<text text-anchor="middle" x="815.5" y="-66" font-family="Helvetica,sans-Serif" font-size="10.00">test</text>
</a>
</g>
</g>
<g id="clust2" class="cluster">
<title>clusterdir_ae672d0ec38a1c8c8634f16f1b469230</title>
<g id="a_clust2"><a xlink:href="dir_ae672d0ec38a1c8c8634f16f1b469230.html" target="_top">
<polygon fill="#edf0f7" stroke="#404040" stroke-width="2" points="16,-16 16,-51 1615,-51 1615,-16 16,-16"/>
</a>
</g>
</g>
<!-- dir_ae672d0ec38a1c8c8634f16f1b469230 -->
<g id="node1" class="node">
<title>dir_ae672d0ec38a1c8c8634f16f1b469230</title>
<text text-anchor="middle" x="1579" y="-31" font-family="Helvetica,sans-Serif" font-size="10.00">unitTest</text>
</g>
<!-- dir_fc2c4d896665d572624621d2d2ddf4b6 -->
<g id="node2" class="node">
<title>dir_fc2c4d896665d572624621d2d2ddf4b6</title>
<g id="a_node2"><a xlink:href="dir_fc2c4d896665d572624621d2d2ddf4b6.html" target="_top" xlink:title="TEST_CountTime">
<polygon fill="#a2b4d6" stroke="#404040" points="1533.5,-43 1434.5,-43 1434.5,-24 1533.5,-24 1533.5,-43"/>
<text text-anchor="middle" x="1484" y="-31" font-family="Helvetica,sans-Serif" font-size="10.00">TEST_CountTime</text>
</a>
</g>
</g>
<!-- dir_1b9779698a98b6273d5d8033cf751914 -->
<g id="node3" class="node">
<title>dir_1b9779698a98b6273d5d8033cf751914</title>
<g id="a_node3"><a xlink:href="dir_1b9779698a98b6273d5d8033cf751914.html" target="_top" xlink:title="TEST_DeltaTime_u32">
<polygon fill="#a2b4d6" stroke="#404040" points="1416,-43 1296,-43 1296,-24 1416,-24 1416,-43"/>
<text text-anchor="middle" x="1356" y="-31" font-family="Helvetica,sans-Serif" font-size="10.00">TEST_DeltaTime_u32</text>
</a>
</g>
</g>
<!-- dir_ec1b1e9ef03254f307d2c692fc861f14 -->
<g id="node4" class="node">
<title>dir_ec1b1e9ef03254f307d2c692fc861f14</title>
<g id="a_node4"><a xlink:href="dir_ec1b1e9ef03254f307d2c692fc861f14.html" target="_top" xlink:title="TEST_ExecutePendingTasks">
<polygon fill="#a2b4d6" stroke="#404040" points="1278,-43 1128,-43 1128,-24 1278,-24 1278,-43"/>
<text text-anchor="middle" x="1203" y="-31" font-family="Helvetica,sans-Serif" font-size="10.00">TEST_ExecutePendingTasks</text>
</a>
</g>
</g>
<!-- dir_b936bdc40dc523d02cc6d252dc7e8368 -->
<g id="node5" class="node">
<title>dir_b936bdc40dc523d02cc6d252dc7e8368</title>
<g id="a_node5"><a xlink:href="dir_b936bdc40dc523d02cc6d252dc7e8368.html" target="_top" xlink:title="TEST_Sched_EntrySequence">
<polygon fill="#a2b4d6" stroke="#404040" points="1109.5,-43 956.5,-43 956.5,-24 1109.5,-24 1109.5,-43"/>
<text text-anchor="middle" x="1033" y="-31" font-family="Helvetica,sans-Serif" font-size="10.00">TEST_Sched_EntrySequence</text>
</a>
</g>
</g>
<!-- dir_9ca0d050910226c38d426666e9377643 -->
<g id="node6" class="node">
<title>dir_9ca0d050910226c38d426666e9377643</title>
<g id="a_node6"><a xlink:href="dir_9ca0d050910226c38d426666e9377643.html" target="_top" xlink:title="TEST_Sched_GetRefTime_u32">
<polygon fill="#a2b4d6" stroke="#404040" points="938,-43 776,-43 776,-24 938,-24 938,-43"/>
<text text-anchor="middle" x="857" y="-31" font-family="Helvetica,sans-Serif" font-size="10.00">TEST_Sched_GetRefTime_u32</text>
</a>
</g>
</g>
<!-- dir_0e21ba5d60029cdf577b5668c103cbe0 -->
<g id="node7" class="node">
<title>dir_0e21ba5d60029cdf577b5668c103cbe0</title>
<g id="a_node7"><a xlink:href="dir_0e21ba5d60029cdf577b5668c103cbe0.html" target="_top" xlink:title="TEST_Sched_Main">
<polygon fill="#a2b4d6" stroke="#404040" points="758,-43 654,-43 654,-24 758,-24 758,-43"/>
<text text-anchor="middle" x="706" y="-31" font-family="Helvetica,sans-Serif" font-size="10.00">TEST_Sched_Main</text>
</a>
</g>
</g>
<!-- dir_9f00447237398a2d02f919884c97413d -->
<g id="node8" class="node">
<title>dir_9f00447237398a2d02f919884c97413d</title>
<g id="a_node8"><a xlink:href="dir_9f00447237398a2d02f919884c97413d.html" target="_top" xlink:title="TEST_Sched_Task0">
<polygon fill="#a2b4d6" stroke="#404040" points="636,-43 528,-43 528,-24 636,-24 636,-43"/>
<text text-anchor="middle" x="582" y="-31" font-family="Helvetica,sans-Serif" font-size="10.00">TEST_Sched_Task0</text>
</a>
</g>
</g>
<!-- dir_8ce27cef8efc7889d1241fad5ca6e6e3 -->
<g id="node9" class="node">
<title>dir_8ce27cef8efc7889d1241fad5ca6e6e3</title>
<g id="a_node9"><a xlink:href="dir_8ce27cef8efc7889d1241fad5ca6e6e3.html" target="_top" xlink:title="TEST_Sched_Task1">
<polygon fill="#a2b4d6" stroke="#404040" points="510,-43 402,-43 402,-24 510,-24 510,-43"/>
<text text-anchor="middle" x="456" y="-31" font-family="Helvetica,sans-Serif" font-size="10.00">TEST_Sched_Task1</text>
</a>
</g>
</g>
<!-- dir_589a9cccdd346fcdc83f8f2948558cf0 -->
<g id="node10" class="node">
<title>dir_589a9cccdd346fcdc83f8f2948558cf0</title>
<g id="a_node10"><a xlink:href="dir_589a9cccdd346fcdc83f8f2948558cf0.html" target="_top" xlink:title="TEST_Sched_Task2">
<polygon fill="#a2b4d6" stroke="#404040" points="384,-43 276,-43 276,-24 384,-24 384,-43"/>
<text text-anchor="middle" x="330" y="-31" font-family="Helvetica,sans-Serif" font-size="10.00">TEST_Sched_Task2</text>
</a>
</g>
</g>
<!-- dir_a8abaeb51de46f378768db94346ed375 -->
<g id="node11" class="node">
<title>dir_a8abaeb51de46f378768db94346ed375</title>
<g id="a_node11"><a xlink:href="dir_a8abaeb51de46f378768db94346ed375.html" target="_top" xlink:title="TEST_Sched_Task3">
<polygon fill="#a2b4d6" stroke="#404040" points="258,-43 150,-43 150,-24 258,-24 258,-43"/>
<text text-anchor="middle" x="204" y="-31" font-family="Helvetica,sans-Serif" font-size="10.00">TEST_Sched_Task3</text>
</a>
</g>
</g>
<!-- dir_a49bfa6a9bf96adfe8304bb4ef5a5178 -->
<g id="node12" class="node">
<title>dir_a49bfa6a9bf96adfe8304bb4ef5a5178</title>
<g id="a_node12"><a xlink:href="dir_a49bfa6a9bf96adfe8304bb4ef5a5178.html" target="_top" xlink:title="TEST_Sched_Task4">
<polygon fill="#a2b4d6" stroke="#404040" points="132,-43 24,-43 24,-24 132,-24 132,-43"/>
<text text-anchor="middle" x="78" y="-31" font-family="Helvetica,sans-Serif" font-size="10.00">TEST_Sched_Task4</text>
</a>
</g>
</g>
</g>
</svg>

<g id="navigator" transform="translate(0 0)" fill="#404254">
  <rect fill="#f2f5e9" fill-opacity="0.5" stroke="#606060" stroke-width=".5" x="0" y="0" width="60" height="60"/>
  <use id="zoomplus" xlink:href="#zoomPlus" x="17" y="9" onmousedown="handleZoom(evt,'in')"/>
  <use id="zoomminus" xlink:href="#zoomMin" x="42" y="9" onmousedown="handleZoom(evt,'out')"/>
  <use id="reset" xlink:href="#resetDef" x="30" y="36" onmousedown="handleReset()"/>
   <use id="arrowup" xlink:href="#arrowUp" x="0" y="0" onmousedown="handlePan(0,-1)"/>
  <use id="arrowright" xlink:href="#arrowRight" x="0" y="0" onmousedown="handlePan(1,0)"/>
  <use id="arrowdown" xlink:href="#arrowDown" x="0" y="0" onmousedown="handlePan(0,1)"/>
  <use id="arrowleft" xlink:href="#arrowLeft" x="0" y="0" onmousedown="handlePan(-1,0)"/>
</g>
<svg viewBox="0 0 15 15" width="100%" height="30px" preserveAspectRatio="xMaxYMin meet">
 <g id="arrow_out" transform="scale(0.3 0.3)">
  <a xlink:href="dir_ae672d0ec38a1c8c8634f16f1b469230_dep_org.svg" target="_base">
   <rect id="button" ry="5" rx="5" y="6" x="6" height="38" width="38"
        fill="#f2f5e9" fill-opacity="0.5" stroke="#606060" stroke-width="1.0"/>
   <path id="arrow"
     d="M 11.500037,31.436501 C 11.940474,20.09759 22.043105,11.32322 32.158766,21.979434 L 37.068811,17.246167 C 37.068811,17.246167 37.088388,32 37.088388,32 L 22.160133,31.978069 C 22.160133,31.978069 26.997745,27.140456 26.997745,27.140456 C 18.528582,18.264221 13.291696,25.230495 11.500037,31.436501 z"
     style="fill:#404040;"/>
  </a>
 </g>
</svg>

<style type='text/css'>
<![CDATA[
[data-mouse-over-selected='false'] { opacity: 0.7; }
[data-mouse-over-selected='true']  { opacity: 1.0; }
]]>
</style>
<script type="application/ecmascript"><![CDATA[
document.addEventListener('DOMContentLoaded', (event) => {
  highlightEdges();
  highlightAdjacentNodes();
});
]]></script>
</svg>
