<?xml version="1.0" encoding="UTF-8" standalone="no"?>
<!DOCTYPE svg PUBLIC "-//W3C//DTD SVG 1.1//EN"
 "http://www.w3.org/Graphics/SVG/1.1/DTD/svg11.dtd">
<!-- Generated by graphviz version 2.43.0 (0)
 -->
<!-- Title: test/unitTest/TEST_Sched_GetRefTime_u32/src/Mcu.h Pages: 1 -->
<svg width="607pt" height="291pt"
 viewBox="0.00 0.00 606.50 291.00" xmlns="http://www.w3.org/2000/svg" xmlns:xlink="http://www.w3.org/1999/xlink">
<g id="graph0" class="graph" transform="scale(1 1) rotate(0) translate(4 287)">
<title>test/unitTest/TEST_Sched_GetRefTime_u32/src/Mcu.h</title>
<!-- Node1 -->
<g id="Node000001" class="node">
<title>Node1</title>
<g id="a_Node000001"><a xlink:title=" ">
<polygon fill="#999999" stroke="#666666" points="319.5,-283 181.5,-283 181.5,-242 319.5,-242 319.5,-283"/>
<text text-anchor="start" x="189.5" y="-271" font-family="Helvetica,sans-Serif" font-size="10.00">test/unitTest/TEST</text>
<text text-anchor="start" x="189.5" y="-260" font-family="Helvetica,sans-Serif" font-size="10.00">_Sched_GetRefTime_u32</text>
<text text-anchor="middle" x="250.5" y="-249" font-family="Helvetica,sans-Serif" font-size="10.00">/src/Mcu.h</text>
</a>
</g>
</g>
<!-- Node2 -->
<g id="Node000002" class="node">
<title>Node2</title>
<g id="a_Node000002"><a xlink:href="Sched_8h.html" target="_top" xlink:title=" ">
<polygon fill="white" stroke="#666666" points="225,-195 130,-195 130,-176 225,-176 225,-195"/>
<text text-anchor="middle" x="177.5" y="-183" font-family="Helvetica,sans-Serif" font-size="10.00">dev/pltf/Sched.h</text>
</a>
</g>
</g>
<!-- Node1&#45;&gt;Node2 -->
<g id="edge1_Node000001_Node000002" class="edge">
<title>Node1&#45;&gt;Node2</title>
<g id="a_edge1_Node000001_Node000002"><a xlink:title=" ">
<path fill="none" stroke="#63b8ff" d="M224.12,-234.4C210.71,-220.62 195.31,-204.8 186,-195.24"/>
<polygon fill="#63b8ff" stroke="#63b8ff" points="221.84,-237.07 231.32,-241.79 226.85,-232.19 221.84,-237.07"/>
</a>
</g>
</g>
<!-- Node5 -->
<g id="Node000005" class="node">
<title>Node5</title>
<g id="a_Node000005"><a xlink:href="Sched__GetRefTime__u32_8h.html" target="_top" xlink:title=" ">
<polygon fill="white" stroke="#666666" points="405.5,-206 243.5,-206 243.5,-165 405.5,-165 405.5,-206"/>
<text text-anchor="start" x="251.5" y="-194" font-family="Helvetica,sans-Serif" font-size="10.00">test/unitTest/TEST</text>
<text text-anchor="start" x="251.5" y="-183" font-family="Helvetica,sans-Serif" font-size="10.00">_Sched_GetRefTime_u32</text>
<text text-anchor="middle" x="324.5" y="-172" font-family="Helvetica,sans-Serif" font-size="10.00">/src/Sched_GetRefTime_u32.h</text>
</a>
</g>
</g>
<!-- Node1&#45;&gt;Node5 -->
<g id="edge4_Node000001_Node000005" class="edge">
<title>Node1&#45;&gt;Node5</title>
<g id="a_edge4_Node000001_Node000005"><a xlink:title=" ">
<path fill="none" stroke="#63b8ff" d="M277.13,-234.51C286.4,-225.11 296.62,-214.76 305.19,-206.07"/>
<polygon fill="#63b8ff" stroke="#63b8ff" points="274.47,-232.22 269.94,-241.79 279.46,-237.13 274.47,-232.22"/>
</a>
</g>
</g>
<!-- Node3 -->
<g id="Node000003" class="node">
<title>Node3</title>
<g id="a_Node000003"><a xlink:href="Sched__Cfg_8c.html" target="_top" xlink:title=" ">
<polygon fill="white" stroke="#666666" points="115,-112.5 0,-112.5 0,-93.5 115,-93.5 115,-112.5"/>
<text text-anchor="middle" x="57.5" y="-100.5" font-family="Helvetica,sans-Serif" font-size="10.00">dev/cfg/Sched_Cfg.c</text>
</a>
</g>
</g>
<!-- Node2&#45;&gt;Node3 -->
<g id="edge2_Node000002_Node000003" class="edge">
<title>Node2&#45;&gt;Node3</title>
<g id="a_edge2_Node000002_Node000003"><a xlink:title=" ">
<path fill="none" stroke="#63b8ff" d="M156.24,-170.24C131.3,-153.51 90.76,-126.31 70.25,-112.55"/>
<polygon fill="#63b8ff" stroke="#63b8ff" points="154.4,-173.22 164.66,-175.89 158.3,-167.41 154.4,-173.22"/>
</a>
</g>
</g>
<!-- Node4 -->
<g id="Node000004" class="node">
<title>Node4</title>
<g id="a_Node000004"><a xlink:href="Sched_8c.html" target="_top" xlink:title=" ">
<polygon fill="white" stroke="#666666" points="228,-112.5 133,-112.5 133,-93.5 228,-93.5 228,-112.5"/>
<text text-anchor="middle" x="180.5" y="-100.5" font-family="Helvetica,sans-Serif" font-size="10.00">dev/pltf/Sched.c</text>
</a>
</g>
</g>
<!-- Node2&#45;&gt;Node4 -->
<g id="edge3_Node000002_Node000004" class="edge">
<title>Node2&#45;&gt;Node4</title>
<g id="a_edge3_Node000002_Node000004"><a xlink:title=" ">
<path fill="none" stroke="#63b8ff" d="M178.2,-165.67C178.82,-149.01 179.7,-125.43 180.17,-112.8"/>
<polygon fill="#63b8ff" stroke="#63b8ff" points="174.7,-165.76 177.82,-175.89 181.69,-166.02 174.7,-165.76"/>
</a>
</g>
</g>
<!-- Node6 -->
<g id="Node000006" class="node">
<title>Node6</title>
<g id="a_Node000006"><a xlink:href="Sched__GetRefTime__u32__help_8h.html" target="_top" xlink:title=" ">
<polygon fill="white" stroke="#666666" points="390.5,-129 252.5,-129 252.5,-77 390.5,-77 390.5,-129"/>
<text text-anchor="start" x="260.5" y="-117" font-family="Helvetica,sans-Serif" font-size="10.00">test/unitTest/TEST</text>
<text text-anchor="start" x="260.5" y="-106" font-family="Helvetica,sans-Serif" font-size="10.00">_Sched_GetRefTime_u32</text>
<text text-anchor="start" x="260.5" y="-95" font-family="Helvetica,sans-Serif" font-size="10.00">/src/Sched_GetRefTime</text>
<text text-anchor="middle" x="321.5" y="-84" font-family="Helvetica,sans-Serif" font-size="10.00">_u32_help.h</text>
</a>
</g>
</g>
<!-- Node5&#45;&gt;Node6 -->
<g id="edge5_Node000005_Node000006" class="edge">
<title>Node5&#45;&gt;Node6</title>
<g id="a_edge5_Node000005_Node000006"><a xlink:title=" ">
<path fill="none" stroke="#63b8ff" d="M323.38,-154.49C323.07,-146.15 322.74,-137.19 322.44,-129.16"/>
<polygon fill="#63b8ff" stroke="#63b8ff" points="319.89,-154.74 323.76,-164.6 326.88,-154.48 319.89,-154.74"/>
</a>
</g>
</g>
<!-- Node8 -->
<g id="Node000008" class="node">
<title>Node8</title>
<g id="a_Node000008"><a xlink:href="test__Sched__GetRefTime__u32_8c.html" target="_top" xlink:title="Unit tests for Sched_GetRefTime_u32.">
<polygon fill="white" stroke="#666666" points="598.5,-123.5 408.5,-123.5 408.5,-82.5 598.5,-82.5 598.5,-123.5"/>
<text text-anchor="start" x="416.5" y="-111.5" font-family="Helvetica,sans-Serif" font-size="10.00">test/unitTest/TEST</text>
<text text-anchor="start" x="416.5" y="-100.5" font-family="Helvetica,sans-Serif" font-size="10.00">_Sched_GetRefTime_u32</text>
<text text-anchor="middle" x="503.5" y="-89.5" font-family="Helvetica,sans-Serif" font-size="10.00">/test/test_Sched_GetRefTime_u32.c</text>
</a>
</g>
</g>
<!-- Node5&#45;&gt;Node8 -->
<g id="edge7_Node000005_Node000008" class="edge">
<title>Node5&#45;&gt;Node8</title>
<g id="a_edge7_Node000005_Node000008"><a xlink:title=" ">
<path fill="none" stroke="#63b8ff" d="M377.69,-160.58C403.89,-148.8 435.08,-134.77 459.85,-123.63"/>
<polygon fill="#63b8ff" stroke="#63b8ff" points="375.97,-157.51 368.29,-164.81 378.84,-163.9 375.97,-157.51"/>
</a>
</g>
</g>
<!-- Node7 -->
<g id="Node000007" class="node">
<title>Node7</title>
<g id="a_Node000007"><a xlink:href="Sched__GetRefTime__u32_8c.html" target="_top" xlink:title=" ">
<polygon fill="white" stroke="#666666" points="402,-41 241,-41 241,0 402,0 402,-41"/>
<text text-anchor="start" x="249" y="-29" font-family="Helvetica,sans-Serif" font-size="10.00">test/unitTest/TEST</text>
<text text-anchor="start" x="249" y="-18" font-family="Helvetica,sans-Serif" font-size="10.00">_Sched_GetRefTime_u32</text>
<text text-anchor="middle" x="321.5" y="-7" font-family="Helvetica,sans-Serif" font-size="10.00">/src/Sched_GetRefTime_u32.c</text>
</a>
</g>
</g>
<!-- Node6&#45;&gt;Node7 -->
<g id="edge6_Node000006_Node000007" class="edge">
<title>Node6&#45;&gt;Node7</title>
<g id="a_edge6_Node000006_Node000007"><a xlink:title=" ">
<path fill="none" stroke="#63b8ff" d="M321.5,-66.87C321.5,-58.05 321.5,-48.9 321.5,-41.15"/>
<polygon fill="#63b8ff" stroke="#63b8ff" points="318,-66.97 321.5,-76.97 325,-66.97 318,-66.97"/>
</a>
</g>
</g>
</g>
</svg>
