<?xml version="1.0" encoding="UTF-8" standalone="no"?>
<!DOCTYPE svg PUBLIC "-//W3C//DTD SVG 1.1//EN"
 "http://www.w3.org/Graphics/SVG/1.1/DTD/svg11.dtd">
<!-- Generated by graphviz version 2.43.0 (0)
 -->
<!-- Title: dev/cfg/Sched_Cfg.c Pages: 1 -->
<svg width="226pt" height="192pt"
 viewBox="0.00 0.00 226.00 192.00" xmlns="http://www.w3.org/2000/svg" xmlns:xlink="http://www.w3.org/1999/xlink">

<svg id="main" version="1.1" xmlns="http://www.w3.org/2000/svg" xmlns:xlink="http://www.w3.org/1999/xlink" xml:space="preserve" onload="init(evt)">
<style type="text/css"><![CDATA[
.node, .edge {opacity: 0.7;}
.node.selected, .edge.selected {opacity: 1;}
.edge:hover path { stroke: red; }
.edge:hover polygon { stroke: red; fill: red; }
]]></style>
<script type="application/ecmascript" xlink:href="svg.min.js"/>
<svg id="graph" class="graph">
<g id="graph0" class="graph" transform="scale(1 1) rotate(0) translate(4 188)">
<title>dev/cfg/Sched_Cfg.c</title>
<!-- Node1 -->
<g id="Node000001" class="node">
<title>Node1</title>
<g id="a_Node000001"><a xlink:title=" ">
<polygon fill="#999999" stroke="#666666" points="163.5,-184 48.5,-184 48.5,-165 163.5,-165 163.5,-184"/>
<text text-anchor="middle" x="106" y="-172" font-family="Helvetica,sans-Serif" font-size="10.00">dev/cfg/Sched_Cfg.c</text>
</a>
</g>
</g>
<!-- Node2 -->
<g id="Node000002" class="node">
<title>Node2</title>
<g id="a_Node000002"><a xlink:href="dev_2cfg_2Sched__Cfg_8h.html" target="_top" xlink:title=" ">
<polygon fill="white" stroke="#666666" points="144.5,-129 67.5,-129 67.5,-110 144.5,-110 144.5,-129"/>
<text text-anchor="middle" x="106" y="-117" font-family="Helvetica,sans-Serif" font-size="10.00">Sched_Cfg.h</text>
</a>
</g>
</g>
<!-- Node1&#45;&gt;Node2 -->
<g id="edge1_Node000001_Node000002" class="edge">
<title>Node1&#45;&gt;Node2</title>
<g id="a_edge1_Node000001_Node000002"><a xlink:title=" ">
<path fill="none" stroke="#63b8ff" d="M106,-164.75C106,-157.8 106,-147.85 106,-139.13"/>
<polygon fill="#63b8ff" stroke="#63b8ff" points="109.5,-139.09 106,-129.09 102.5,-139.09 109.5,-139.09"/>
</a>
</g>
</g>
<!-- Node3 -->
<g id="Node000003" class="node">
<title>Node3</title>
<g id="a_Node000003"><a xlink:title=" ">
<polygon fill="#e0e0e0" stroke="#999999" points="78,-74 0,-74 0,-55 78,-55 78,-74"/>
<text text-anchor="middle" x="39" y="-62" font-family="Helvetica,sans-Serif" font-size="10.00">Sched_Priv.h</text>
</a>
</g>
</g>
<!-- Node1&#45;&gt;Node3 -->
<g id="edge8_Node000001_Node000003" class="edge">
<title>Node1&#45;&gt;Node3</title>
<g id="a_edge8_Node000001_Node000003"><a xlink:title=" ">
<path fill="none" stroke="#63b8ff" d="M93.19,-164.69C82.34,-156.6 67.13,-143.66 58,-129 49.45,-115.26 44.56,-97.46 41.89,-84.2"/>
<polygon fill="#63b8ff" stroke="#63b8ff" points="45.33,-83.55 40.13,-74.32 38.43,-84.78 45.33,-83.55"/>
</a>
</g>
</g>
<!-- Node5 -->
<g id="Node000005" class="node">
<title>Node5</title>
<g id="a_Node000005"><a xlink:href="Sched_8h.html" target="_top" xlink:title=" ">
<polygon fill="white" stroke="#666666" points="217.5,-129 162.5,-129 162.5,-110 217.5,-110 217.5,-129"/>
<text text-anchor="middle" x="190" y="-117" font-family="Helvetica,sans-Serif" font-size="10.00">Sched.h</text>
</a>
</g>
</g>
<!-- Node1&#45;&gt;Node5 -->
<g id="edge4_Node000001_Node000005" class="edge">
<title>Node1&#45;&gt;Node5</title>
<g id="a_edge4_Node000001_Node000005"><a xlink:title=" ">
<path fill="none" stroke="#63b8ff" d="M119.5,-164.98C132.4,-156.84 152.1,-144.41 167.4,-134.76"/>
<polygon fill="#63b8ff" stroke="#63b8ff" points="169.67,-137.47 176.26,-129.17 165.93,-131.55 169.67,-137.47"/>
</a>
</g>
</g>
<!-- Node2&#45;&gt;Node3 -->
<g id="edge2_Node000002_Node000003" class="edge">
<title>Node2&#45;&gt;Node3</title>
<g id="a_edge2_Node000002_Node000003"><a xlink:title=" ">
<path fill="none" stroke="#63b8ff" d="M95.24,-109.98C85.23,-102.07 70.11,-90.11 58.07,-80.58"/>
<polygon fill="#63b8ff" stroke="#63b8ff" points="59.97,-77.63 49.96,-74.17 55.63,-83.12 59.97,-77.63"/>
</a>
</g>
</g>
<!-- Node4 -->
<g id="Node000004" class="node">
<title>Node4</title>
<g id="a_Node000004"><a xlink:title=" ">
<polygon fill="#e0e0e0" stroke="#999999" points="170.5,-19 117.5,-19 117.5,0 170.5,0 170.5,-19"/>
<text text-anchor="middle" x="144" y="-7" font-family="Helvetica,sans-Serif" font-size="10.00">stdint.h</text>
</a>
</g>
</g>
<!-- Node2&#45;&gt;Node4 -->
<g id="edge3_Node000002_Node000004" class="edge">
<title>Node2&#45;&gt;Node4</title>
<g id="a_edge3_Node000002_Node000004"><a xlink:title=" ">
<path fill="none" stroke="#63b8ff" d="M109.11,-109.66C115.32,-92.01 129.37,-52.09 137.62,-28.64"/>
<polygon fill="#63b8ff" stroke="#63b8ff" points="140.94,-29.75 140.95,-19.16 134.33,-27.43 140.94,-29.75"/>
</a>
</g>
</g>
<!-- Node5&#45;&gt;Node4 -->
<g id="edge7_Node000005_Node000004" class="edge">
<title>Node5&#45;&gt;Node4</title>
<g id="a_edge7_Node000005_Node000004"><a xlink:title=" ">
<path fill="none" stroke="#63b8ff" d="M183.93,-109.99C177.95,-101.29 168.87,-87.21 163,-74 156.57,-59.52 151.56,-42.25 148.3,-29.38"/>
<polygon fill="#63b8ff" stroke="#63b8ff" points="151.64,-28.29 145.9,-19.38 144.83,-29.92 151.64,-28.29"/>
</a>
</g>
</g>
<!-- Node6 -->
<g id="Node000006" class="node">
<title>Node6</title>
<g id="a_Node000006"><a xlink:href="Mcu_8h.html" target="_top" xlink:title=" ">
<polygon fill="white" stroke="#666666" points="218,-74 172,-74 172,-55 218,-55 218,-74"/>
<text text-anchor="middle" x="195" y="-62" font-family="Helvetica,sans-Serif" font-size="10.00">Mcu.h</text>
</a>
</g>
</g>
<!-- Node5&#45;&gt;Node6 -->
<g id="edge5_Node000005_Node000006" class="edge">
<title>Node5&#45;&gt;Node6</title>
<g id="a_edge5_Node000005_Node000006"><a xlink:title=" ">
<path fill="none" stroke="#63b8ff" d="M190.83,-109.75C191.48,-102.8 192.42,-92.85 193.24,-84.13"/>
<polygon fill="#63b8ff" stroke="#63b8ff" points="196.73,-84.37 194.19,-74.09 189.77,-83.72 196.73,-84.37"/>
</a>
</g>
</g>
<!-- Node6&#45;&gt;Node4 -->
<g id="edge6_Node000006_Node000004" class="edge">
<title>Node6&#45;&gt;Node4</title>
<g id="a_edge6_Node000006_Node000004"><a xlink:title=" ">
<path fill="none" stroke="#63b8ff" d="M186.58,-54.75C179.23,-47.11 168.37,-35.82 159.46,-26.56"/>
<polygon fill="#63b8ff" stroke="#63b8ff" points="161.72,-23.87 152.26,-19.09 156.68,-28.72 161.72,-23.87"/>
</a>
</g>
</g>
</g>
</svg>
</svg>

<style type='text/css'>
<![CDATA[
[data-mouse-over-selected='false'] { opacity: 0.7; }
[data-mouse-over-selected='true']  { opacity: 1.0; }
]]>
</style>
<script type="application/ecmascript"><![CDATA[
document.addEventListener('DOMContentLoaded', (event) => {
  highlightEdges();
  highlightAdjacentNodes();
});
]]></script>
</svg>
