<?xml version="1.0" encoding="UTF-8" standalone="no"?>
<!DOCTYPE svg PUBLIC "-//W3C//DTD SVG 1.1//EN"
 "http://www.w3.org/Graphics/SVG/1.1/DTD/svg11.dtd">
<!-- Generated by graphviz version 2.43.0 (0)
 -->
<!-- Title: test/unitTest/TEST_Sched_GetRefTime_u32/test/test_Sched_GetRefTime_u32.c Pages: 1 -->
<svg width="581pt" height="269pt"
 viewBox="0.00 0.00 581.00 269.00" xmlns="http://www.w3.org/2000/svg" xmlns:xlink="http://www.w3.org/1999/xlink">
<g id="graph0" class="graph" transform="scale(1 1) rotate(0) translate(4 265)">
<title>test/unitTest/TEST_Sched_GetRefTime_u32/test/test_Sched_GetRefTime_u32.c</title>
<!-- Node1 -->
<g id="Node000001" class="node">
<title>Node1</title>
<g id="a_Node000001"><a xlink:title="Unit tests for Sched_GetRefTime_u32.">
<polygon fill="#999999" stroke="#666666" points="373,-261 183,-261 183,-220 373,-220 373,-261"/>
<text text-anchor="start" x="191" y="-249" font-family="Helvetica,sans-Serif" font-size="10.00">test/unitTest/TEST</text>
<text text-anchor="start" x="191" y="-238" font-family="Helvetica,sans-Serif" font-size="10.00">_Sched_GetRefTime_u32</text>
<text text-anchor="middle" x="278" y="-227" font-family="Helvetica,sans-Serif" font-size="10.00">/test/test_Sched_GetRefTime_u32.c</text>
</a>
</g>
</g>
<!-- Node2 -->
<g id="Node000002" class="node">
<title>Node2</title>
<g id="a_Node000002"><a xlink:href="Sched__GetRefTime__u32_8h.html" target="_top" xlink:title=" ">
<polygon fill="white" stroke="#666666" points="153,-184 11,-184 11,-165 153,-165 153,-184"/>
<text text-anchor="middle" x="82" y="-172" font-family="Helvetica,sans-Serif" font-size="10.00">Sched_GetRefTime_u32.h</text>
</a>
</g>
</g>
<!-- Node1&#45;&gt;Node2 -->
<g id="edge1_Node000001_Node000002" class="edge">
<title>Node1&#45;&gt;Node2</title>
<g id="a_edge1_Node000001_Node000002"><a xlink:title=" ">
<path fill="none" stroke="#63b8ff" d="M218.13,-219.95C185.34,-209.24 145.81,-196.34 117.81,-187.19"/>
<polygon fill="#63b8ff" stroke="#63b8ff" points="118.65,-183.78 108.06,-184.01 116.48,-190.44 118.65,-183.78"/>
</a>
</g>
</g>
<!-- Node8 -->
<g id="Node000008" class="node">
<title>Node8</title>
<g id="a_Node000008"><a xlink:title=" ">
<polygon fill="#e0e0e0" stroke="#999999" points="220.5,-184 171.5,-184 171.5,-165 220.5,-165 220.5,-184"/>
<text text-anchor="middle" x="196" y="-172" font-family="Helvetica,sans-Serif" font-size="10.00">unity.h</text>
</a>
</g>
</g>
<!-- Node1&#45;&gt;Node8 -->
<g id="edge10_Node000001_Node000008" class="edge">
<title>Node1&#45;&gt;Node8</title>
<g id="a_edge10_Node000001_Node000008"><a xlink:title=" ">
<path fill="none" stroke="#63b8ff" d="M252.95,-219.95C240.79,-210.46 226.41,-199.24 215.15,-190.44"/>
<polygon fill="#63b8ff" stroke="#63b8ff" points="217.26,-187.65 207.22,-184.26 212.95,-193.17 217.26,-187.65"/>
</a>
</g>
</g>
<!-- Node9 -->
<g id="Node000009" class="node">
<title>Node9</title>
<g id="a_Node000009"><a xlink:title=" ">
<polygon fill="#e0e0e0" stroke="#999999" points="317,-184 239,-184 239,-165 317,-165 317,-184"/>
<text text-anchor="middle" x="278" y="-172" font-family="Helvetica,sans-Serif" font-size="10.00">mock_Mcu.h</text>
</a>
</g>
</g>
<!-- Node1&#45;&gt;Node9 -->
<g id="edge11_Node000001_Node000009" class="edge">
<title>Node1&#45;&gt;Node9</title>
<g id="a_edge11_Node000001_Node000009"><a xlink:title=" ">
<path fill="none" stroke="#63b8ff" d="M278,-219.95C278,-211.85 278,-202.5 278,-194.47"/>
<polygon fill="#63b8ff" stroke="#63b8ff" points="281.5,-194.26 278,-184.26 274.5,-194.26 281.5,-194.26"/>
</a>
</g>
</g>
<!-- Node10 -->
<g id="Node000010" class="node">
<title>Node10</title>
<g id="a_Node000010"><a xlink:title=" ">
<polygon fill="#e0e0e0" stroke="#999999" points="444.5,-184 335.5,-184 335.5,-165 444.5,-165 444.5,-184"/>
<text text-anchor="middle" x="390" y="-172" font-family="Helvetica,sans-Serif" font-size="10.00">mock_Sched_Cfg.h</text>
</a>
</g>
</g>
<!-- Node1&#45;&gt;Node10 -->
<g id="edge12_Node000001_Node000010" class="edge">
<title>Node1&#45;&gt;Node10</title>
<g id="a_edge12_Node000001_Node000010"><a xlink:title=" ">
<path fill="none" stroke="#63b8ff" d="M312.21,-219.95C329.58,-210.03 350.26,-198.21 365.93,-189.25"/>
<polygon fill="#63b8ff" stroke="#63b8ff" points="368.02,-192.09 374.96,-184.09 364.55,-186.01 368.02,-192.09"/>
</a>
</g>
</g>
<!-- Node11 -->
<g id="Node000011" class="node">
<title>Node11</title>
<g id="a_Node000011"><a xlink:title=" ">
<polygon fill="#e0e0e0" stroke="#999999" points="573,-184 463,-184 463,-165 573,-165 573,-184"/>
<text text-anchor="middle" x="518" y="-172" font-family="Helvetica,sans-Serif" font-size="10.00">mock_Sched_Priv.h</text>
</a>
</g>
</g>
<!-- Node1&#45;&gt;Node11 -->
<g id="edge13_Node000001_Node000011" class="edge">
<title>Node1&#45;&gt;Node11</title>
<g id="a_edge13_Node000001_Node000011"><a xlink:title=" ">
<path fill="none" stroke="#63b8ff" d="M351.31,-219.95C392.34,-209.01 441.99,-195.77 476.38,-186.6"/>
<polygon fill="#63b8ff" stroke="#63b8ff" points="477.33,-189.97 486.09,-184.01 475.53,-183.2 477.33,-189.97"/>
</a>
</g>
</g>
<!-- Node3 -->
<g id="Node000003" class="node">
<title>Node3</title>
<g id="a_Node000003"><a xlink:href="Mcu_8h.html" target="_top" xlink:title=" ">
<polygon fill="white" stroke="#666666" points="46,-129 0,-129 0,-110 46,-110 46,-129"/>
<text text-anchor="middle" x="23" y="-117" font-family="Helvetica,sans-Serif" font-size="10.00">Mcu.h</text>
</a>
</g>
</g>
<!-- Node2&#45;&gt;Node3 -->
<g id="edge2_Node000002_Node000003" class="edge">
<title>Node2&#45;&gt;Node3</title>
<g id="a_edge2_Node000002_Node000003"><a xlink:title=" ">
<path fill="none" stroke="#63b8ff" d="M72.52,-164.98C63.8,-157.15 50.66,-145.34 40.1,-135.86"/>
<polygon fill="#63b8ff" stroke="#63b8ff" points="42.43,-133.25 32.65,-129.17 37.75,-138.46 42.43,-133.25"/>
</a>
</g>
</g>
<!-- Node5 -->
<g id="Node000005" class="node">
<title>Node5</title>
<g id="a_Node000005"><a xlink:href="TEST__Sched__GetRefTime__u32_2src_2Sched__Cfg_8h.html" target="_top" xlink:title=" ">
<polygon fill="white" stroke="#666666" points="120.5,-74 43.5,-74 43.5,-55 120.5,-55 120.5,-74"/>
<text text-anchor="middle" x="82" y="-62" font-family="Helvetica,sans-Serif" font-size="10.00">Sched_Cfg.h</text>
</a>
</g>
</g>
<!-- Node2&#45;&gt;Node5 -->
<g id="edge4_Node000002_Node000005" class="edge">
<title>Node2&#45;&gt;Node5</title>
<g id="a_edge4_Node000002_Node000005"><a xlink:title=" ">
<path fill="none" stroke="#63b8ff" d="M82,-164.66C82,-147.17 82,-107.8 82,-84.27"/>
<polygon fill="#63b8ff" stroke="#63b8ff" points="85.5,-84.16 82,-74.16 78.5,-84.16 85.5,-84.16"/>
</a>
</g>
</g>
<!-- Node6 -->
<g id="Node000006" class="node">
<title>Node6</title>
<g id="a_Node000006"><a xlink:href="TEST__Sched__GetRefTime__u32_2src_2Sched__Priv_8h.html" target="_top" xlink:title=" ">
<polygon fill="white" stroke="#666666" points="188,-129 110,-129 110,-110 188,-110 188,-129"/>
<text text-anchor="middle" x="149" y="-117" font-family="Helvetica,sans-Serif" font-size="10.00">Sched_Priv.h</text>
</a>
</g>
</g>
<!-- Node2&#45;&gt;Node6 -->
<g id="edge6_Node000002_Node000006" class="edge">
<title>Node2&#45;&gt;Node6</title>
<g id="a_edge6_Node000002_Node000006"><a xlink:title=" ">
<path fill="none" stroke="#63b8ff" d="M92.76,-164.98C102.77,-157.07 117.89,-145.11 129.93,-135.58"/>
<polygon fill="#63b8ff" stroke="#63b8ff" points="132.37,-138.12 138.04,-129.17 128.03,-132.63 132.37,-138.12"/>
</a>
</g>
</g>
<!-- Node4 -->
<g id="Node000004" class="node">
<title>Node4</title>
<g id="a_Node000004"><a xlink:title=" ">
<polygon fill="#e0e0e0" stroke="#999999" points="108.5,-19 55.5,-19 55.5,0 108.5,0 108.5,-19"/>
<text text-anchor="middle" x="82" y="-7" font-family="Helvetica,sans-Serif" font-size="10.00">stdint.h</text>
</a>
</g>
</g>
<!-- Node3&#45;&gt;Node4 -->
<g id="edge3_Node000003_Node000004" class="edge">
<title>Node3&#45;&gt;Node4</title>
<g id="a_edge3_Node000003_Node000004"><a xlink:title=" ">
<path fill="none" stroke="#63b8ff" d="M22.79,-109.71C22.86,-96.9 24.39,-72.7 34,-55 40.37,-43.26 51.02,-32.92 60.66,-25.17"/>
<polygon fill="#63b8ff" stroke="#63b8ff" points="62.89,-27.87 68.75,-19.05 58.66,-22.29 62.89,-27.87"/>
</a>
</g>
</g>
<!-- Node5&#45;&gt;Node4 -->
<g id="edge5_Node000005_Node000004" class="edge">
<title>Node5&#45;&gt;Node4</title>
<g id="a_edge5_Node000005_Node000004"><a xlink:title=" ">
<path fill="none" stroke="#63b8ff" d="M82,-54.75C82,-47.8 82,-37.85 82,-29.13"/>
<polygon fill="#63b8ff" stroke="#63b8ff" points="85.5,-29.09 82,-19.09 78.5,-29.09 85.5,-29.09"/>
</a>
</g>
</g>
<!-- Node6&#45;&gt;Node4 -->
<g id="edge9_Node000006_Node000004" class="edge">
<title>Node6&#45;&gt;Node4</title>
<g id="a_edge9_Node000006_Node000004"><a xlink:title=" ">
<path fill="none" stroke="#63b8ff" d="M147.68,-109.7C145.44,-96.87 140.03,-72.64 129,-55 121.97,-43.77 111.45,-33.44 102.14,-25.57"/>
<polygon fill="#63b8ff" stroke="#63b8ff" points="104.05,-22.62 94.07,-19.08 99.67,-28.07 104.05,-22.62"/>
</a>
</g>
</g>
<!-- Node6&#45;&gt;Node5 -->
<g id="edge7_Node000006_Node000005" class="edge">
<title>Node6&#45;&gt;Node5</title>
<g id="a_edge7_Node000006_Node000005"><a xlink:title=" ">
<path fill="none" stroke="#63b8ff" d="M138.24,-109.98C128.23,-102.07 113.11,-90.11 101.07,-80.58"/>
<polygon fill="#63b8ff" stroke="#63b8ff" points="102.97,-77.63 92.96,-74.17 98.63,-83.12 102.97,-77.63"/>
</a>
</g>
</g>
<!-- Node7 -->
<g id="Node000007" class="node">
<title>Node7</title>
<g id="a_Node000007"><a xlink:title=" ">
<polygon fill="#e0e0e0" stroke="#999999" points="239,-74 177,-74 177,-55 239,-55 239,-74"/>
<text text-anchor="middle" x="208" y="-62" font-family="Helvetica,sans-Serif" font-size="10.00">stdbool.h</text>
</a>
</g>
</g>
<!-- Node6&#45;&gt;Node7 -->
<g id="edge8_Node000006_Node000007" class="edge">
<title>Node6&#45;&gt;Node7</title>
<g id="a_edge8_Node000006_Node000007"><a xlink:title=" ">
<path fill="none" stroke="#63b8ff" d="M158.48,-109.98C167.2,-102.15 180.34,-90.34 190.9,-80.86"/>
<polygon fill="#63b8ff" stroke="#63b8ff" points="193.25,-83.46 198.35,-74.17 188.57,-78.25 193.25,-83.46"/>
</a>
</g>
</g>
</g>
</svg>
