<?xml version="1.0" encoding="UTF-8" standalone="no"?>
<!DOCTYPE svg PUBLIC "-//W3C//DTD SVG 1.1//EN"
 "http://www.w3.org/Graphics/SVG/1.1/DTD/svg11.dtd">
<!-- Generated by graphviz version 2.43.0 (0)
 -->
<!-- Title: Sched_Main Pages: 1 -->
<svg width="539pt" height="101pt"
 viewBox="0.00 0.00 539.00 101.00" xmlns="http://www.w3.org/2000/svg" xmlns:xlink="http://www.w3.org/1999/xlink">
<g id="graph0" class="graph" transform="scale(1 1) rotate(0) translate(4 97)">
<title>Sched_Main</title>
<!-- Node1 -->
<g id="Node000001" class="node">
<title>Node1</title>
<g id="a_Node000001"><a xlink:title="Main scheduler function.">
<polygon fill="#999999" stroke="#666666" points="75,-56 0,-56 0,-37 75,-37 75,-56"/>
<text text-anchor="middle" x="37.5" y="-44" font-family="Helvetica,sans-Serif" font-size="10.00">Sched_Main</text>
</a>
</g>
</g>
<!-- Node2 -->
<g id="Node000002" class="node">
<title>Node2</title>
<g id="a_Node000002"><a xlink:href="Sched_8c.html#a99b8597edbc7a86e0ff556329d27d28c" target="_top" xlink:title=" ">
<polygon fill="white" stroke="#666666" points="208,-93 138,-93 138,-74 208,-74 208,-93"/>
<text text-anchor="middle" x="173" y="-81" font-family="Helvetica,sans-Serif" font-size="10.00">CountTime</text>
</a>
</g>
</g>
<!-- Node1&#45;&gt;Node2 -->
<g id="edge1_Node000001_Node000002" class="edge">
<title>Node1&#45;&gt;Node2</title>
<g id="a_edge1_Node000001_Node000002"><a xlink:title=" ">
<path fill="none" stroke="#63b8ff" d="M72.88,-56.03C89.7,-60.69 110.13,-66.35 128.07,-71.32"/>
<polygon fill="#63b8ff" stroke="#63b8ff" points="127.17,-74.71 137.74,-74 129.04,-67.96 127.17,-74.71"/>
</a>
</g>
</g>
<!-- Node5 -->
<g id="Node000005" class="node">
<title>Node5</title>
<g id="a_Node000005"><a xlink:href="Sched_8c.html#a75a48d5cf2208ddbe805fffb9af6df15" target="_top" xlink:title=" ">
<polygon fill="white" stroke="#666666" points="233.5,-56 112.5,-56 112.5,-37 233.5,-37 233.5,-56"/>
<text text-anchor="middle" x="173" y="-44" font-family="Helvetica,sans-Serif" font-size="10.00">ExecutePendingTasks</text>
</a>
</g>
</g>
<!-- Node1&#45;&gt;Node5 -->
<g id="edge4_Node000001_Node000005" class="edge">
<title>Node1&#45;&gt;Node5</title>
<g id="a_edge4_Node000001_Node000005"><a xlink:title=" ">
<path fill="none" stroke="#63b8ff" d="M75.33,-46.5C83.78,-46.5 93.03,-46.5 102.35,-46.5"/>
<polygon fill="#63b8ff" stroke="#63b8ff" points="102.47,-50 112.47,-46.5 102.47,-43 102.47,-50"/>
</a>
</g>
</g>
<!-- Node6 -->
<g id="Node000006" class="node">
<title>Node6</title>
<g id="a_Node000006"><a xlink:href="group__Sched.html#ga41d855b5aa179267c4c27ac86601ad34" target="_top" xlink:title="Execute the scheduler entry initialization sequence.">
<polygon fill="white" stroke="#666666" points="235,-19 111,-19 111,0 235,0 235,-19"/>
<text text-anchor="middle" x="173" y="-7" font-family="Helvetica,sans-Serif" font-size="10.00">Sched_EntrySequence</text>
</a>
</g>
</g>
<!-- Node1&#45;&gt;Node6 -->
<g id="edge5_Node000001_Node000006" class="edge">
<title>Node1&#45;&gt;Node6</title>
<g id="a_edge5_Node000001_Node000006"><a xlink:title=" ">
<path fill="none" stroke="#63b8ff" d="M72.88,-36.97C89.41,-32.39 109.44,-26.84 127.15,-21.93"/>
<polygon fill="#63b8ff" stroke="#63b8ff" points="128.57,-25.17 137.27,-19.12 126.7,-18.42 128.57,-25.17"/>
</a>
</g>
</g>
<!-- Node3 -->
<g id="Node000003" class="node">
<title>Node3</title>
<g id="a_Node000003"><a xlink:href="Sched_8c.html#a00304344cc73ea96d3ad1b85eefe2df2" target="_top" xlink:title=" ">
<polygon fill="white" stroke="#666666" points="362,-93 271,-93 271,-74 362,-74 362,-93"/>
<text text-anchor="middle" x="316.5" y="-81" font-family="Helvetica,sans-Serif" font-size="10.00">DeltaTime_u32</text>
</a>
</g>
</g>
<!-- Node2&#45;&gt;Node3 -->
<g id="edge2_Node000002_Node000003" class="edge">
<title>Node2&#45;&gt;Node3</title>
<g id="a_edge2_Node000002_Node000003"><a xlink:title=" ">
<path fill="none" stroke="#63b8ff" d="M208.25,-83.5C223.98,-83.5 243.02,-83.5 260.66,-83.5"/>
<polygon fill="#63b8ff" stroke="#63b8ff" points="260.86,-87 270.86,-83.5 260.86,-80 260.86,-87"/>
</a>
</g>
</g>
<!-- Node4 -->
<g id="Node000004" class="node">
<title>Node4</title>
<g id="a_Node000004"><a xlink:href="group__Sched.html#ga6db6318dec09fb3100bd27a4fe7981ff" target="_top" xlink:title="Get the current scheduler reference time.">
<polygon fill="white" stroke="#666666" points="531,-93 398,-93 398,-74 531,-74 531,-93"/>
<text text-anchor="middle" x="464.5" y="-81" font-family="Helvetica,sans-Serif" font-size="10.00">Sched_GetRefTime_u32</text>
</a>
</g>
</g>
<!-- Node3&#45;&gt;Node4 -->
<g id="edge3_Node000003_Node000004" class="edge">
<title>Node3&#45;&gt;Node4</title>
<g id="a_edge3_Node000003_Node000004"><a xlink:title=" ">
<path fill="none" stroke="#63b8ff" d="M362.1,-83.5C370.24,-83.5 378.93,-83.5 387.68,-83.5"/>
<polygon fill="#63b8ff" stroke="#63b8ff" points="387.94,-87 397.94,-83.5 387.94,-80 387.94,-87"/>
</a>
</g>
</g>
</g>
</svg>
