<?xml version="1.0" encoding="us-ascii" standalone="no"?><svg xmlns="http://www.w3.org/2000/svg" xmlns:xlink="http://www.w3.org/1999/xlink" contentStyleType="text/css" height="645px" preserveAspectRatio="none" style="width:1465px;height:645px;background:#FFFFFF;" version="1.1" viewBox="0 0 1465 645" width="1465px" zoomAndPan="magnify"><defs/><g><text fill="#000000" font-family="sans-serif" font-size="14" font-weight="bold" lengthAdjust="spacing" textLength="142" x="657.75" y="27.9951">Scheduler Module</text><rect fill="#DDDDDD" height="596.4531" style="stroke:#181818;stroke-width:0.5;" width="149" x="114" y="43.2969"/><text fill="#000000" font-family="sans-serif" font-size="13" font-weight="bold" lengthAdjust="spacing" textLength="143" x="117" y="55.3638">Platform interfaces</text><rect fill="#DDDDDD" height="596.4531" style="stroke:#181818;stroke-width:0.5;" width="434" x="279.5" y="43.2969"/><text fill="#000000" font-family="sans-serif" font-size="13" font-weight="bold" lengthAdjust="spacing" textLength="125" x="434" y="55.3638">Platform internal</text><rect fill="#DDDDDD" height="596.4531" style="stroke:#181818;stroke-width:0.5;" width="697" x="715.5" y="43.2969"/><text fill="#000000" font-family="sans-serif" font-size="13" font-weight="bold" lengthAdjust="spacing" textLength="100" x="1014" y="55.3638">Configuration</text><line style="stroke:#181818;stroke-width:0.5;stroke-dasharray:5.0,5.0;" x1="35" x2="35" y1="118.5938" y2="560.4531"/><line style="stroke:#181818;stroke-width:0.5;stroke-dasharray:5.0,5.0;" x1="188" x2="188" y1="118.5938" y2="560.4531"/><line style="stroke:#181818;stroke-width:0.5;stroke-dasharray:5.0,5.0;" x1="333.5" x2="333.5" y1="118.5938" y2="560.4531"/><line style="stroke:#181818;stroke-width:0.5;stroke-dasharray:5.0,5.0;" x1="482.5" x2="482.5" y1="118.5938" y2="560.4531"/><line style="stroke:#181818;stroke-width:0.5;stroke-dasharray:5.0,5.0;" x1="645.5" x2="645.5" y1="118.5938" y2="560.4531"/><line style="stroke:#181818;stroke-width:0.5;stroke-dasharray:5.0,5.0;" x1="809.5" x2="809.5" y1="118.5938" y2="560.4531"/><line style="stroke:#181818;stroke-width:0.5;stroke-dasharray:5.0,5.0;" x1="968.5" x2="968.5" y1="118.5938" y2="560.4531"/><line style="stroke:#181818;stroke-width:0.5;stroke-dasharray:5.0,5.0;" x1="1095.5" x2="1095.5" y1="118.5938" y2="560.4531"/><line style="stroke:#181818;stroke-width:0.5;stroke-dasharray:5.0,5.0;" x1="1222.5" x2="1222.5" y1="118.5938" y2="560.4531"/><line style="stroke:#181818;stroke-width:0.5;stroke-dasharray:5.0,5.0;" x1="1349.5" x2="1349.5" y1="118.5938" y2="560.4531"/><line style="stroke:#181818;stroke-width:0.5;stroke-dasharray:5.0,5.0;" x1="1435.5" x2="1435.5" y1="118.5938" y2="560.4531"/><text fill="#000000" font-family="sans-serif" font-size="14" lengthAdjust="spacing" textLength="55" x="5" y="115.292">External</text><ellipse cx="35.5" cy="50.7969" fill="#E2E2F0" rx="8" ry="8" style="stroke:#181818;stroke-width:0.5;"/><path d="M35.5,58.7969 L35.5,85.7969 M22.5,66.7969 L48.5,66.7969 M35.5,85.7969 L22.5,100.7969 M35.5,85.7969 L48.5,100.7969 " fill="none" style="stroke:#181818;stroke-width:0.5;"/><text fill="#000000" font-family="sans-serif" font-size="14" lengthAdjust="spacing" textLength="55" x="5" y="572.4482">External</text><ellipse cx="35.5" cy="584.25" fill="#E2E2F0" rx="8" ry="8" style="stroke:#181818;stroke-width:0.5;"/><path d="M35.5,592.25 L35.5,619.25 M22.5,600.25 L48.5,600.25 M35.5,619.25 L22.5,634.25 M35.5,619.25 L48.5,634.25 " fill="none" style="stroke:#181818;stroke-width:0.5;"/><rect fill="#E2E2F0" height="30.2969" rx="2.5" ry="2.5" style="stroke:#181818;stroke-width:0.5;" width="107" x="135" y="87.2969"/><text fill="#000000" font-family="sans-serif" font-size="14" lengthAdjust="spacing" textLength="93" x="142" y="107.292">Sched_Main()</text><rect fill="#E2E2F0" height="30.2969" rx="2.5" ry="2.5" style="stroke:#181818;stroke-width:0.5;" width="107" x="135" y="559.4531"/><text fill="#000000" font-family="sans-serif" font-size="14" lengthAdjust="spacing" textLength="93" x="142" y="579.4482">Sched_Main()</text><rect fill="#E2E2F0" height="30.2969" rx="2.5" ry="2.5" style="stroke:#181818;stroke-width:0.5;" width="100" x="283.5" y="87.2969"/><text fill="#000000" font-family="sans-serif" font-size="14" lengthAdjust="spacing" textLength="86" x="290.5" y="107.292">CountTime()</text><rect fill="#E2E2F0" height="30.2969" rx="2.5" ry="2.5" style="stroke:#181818;stroke-width:0.5;" width="100" x="283.5" y="559.4531"/><text fill="#000000" font-family="sans-serif" font-size="14" lengthAdjust="spacing" textLength="86" x="290.5" y="579.4482">CountTime()</text><rect fill="#E2E2F0" height="30.2969" rx="2.5" ry="2.5" style="stroke:#181818;stroke-width:0.5;" width="178" x="393.5" y="87.2969"/><text fill="#000000" font-family="sans-serif" font-size="14" lengthAdjust="spacing" textLength="164" x="400.5" y="107.292">ExecutePendingTasks()</text><rect fill="#E2E2F0" height="30.2969" rx="2.5" ry="2.5" style="stroke:#181818;stroke-width:0.5;" width="178" x="393.5" y="559.4531"/><text fill="#000000" font-family="sans-serif" font-size="14" lengthAdjust="spacing" textLength="164" x="400.5" y="579.4482">ExecutePendingTasks()</text><rect fill="#E2E2F0" height="30.2969" rx="2.5" ry="2.5" style="stroke:#181818;stroke-width:0.5;" width="128" x="581.5" y="87.2969"/><text fill="#000000" font-family="sans-serif" font-size="14" lengthAdjust="spacing" textLength="114" x="588.5" y="107.292">DeltaTime_u32()</text><rect fill="#E2E2F0" height="30.2969" rx="2.5" ry="2.5" style="stroke:#181818;stroke-width:0.5;" width="128" x="581.5" y="559.4531"/><text fill="#000000" font-family="sans-serif" font-size="14" lengthAdjust="spacing" textLength="114" x="588.5" y="579.4482">DeltaTime_u32()</text><rect fill="#E2E2F0" height="30.2969" rx="2.5" ry="2.5" style="stroke:#181818;stroke-width:0.5;" width="181" x="719.5" y="87.2969"/><text fill="#000000" font-family="sans-serif" font-size="14" lengthAdjust="spacing" textLength="167" x="726.5" y="107.292">Sched_EntrySequence()</text><rect fill="#E2E2F0" height="30.2969" rx="2.5" ry="2.5" style="stroke:#181818;stroke-width:0.5;" width="181" x="719.5" y="559.4531"/><text fill="#000000" font-family="sans-serif" font-size="14" lengthAdjust="spacing" textLength="167" x="726.5" y="579.4482">Sched_EntrySequence()</text><rect fill="#E2E2F0" height="30.2969" rx="2.5" ry="2.5" style="stroke:#181818;stroke-width:0.5;" width="117" x="910.5" y="87.2969"/><text fill="#000000" font-family="sans-serif" font-size="14" lengthAdjust="spacing" textLength="103" x="917.5" y="107.292">Sched_Task0()</text><rect fill="#E2E2F0" height="30.2969" rx="2.5" ry="2.5" style="stroke:#181818;stroke-width:0.5;" width="117" x="910.5" y="559.4531"/><text fill="#000000" font-family="sans-serif" font-size="14" lengthAdjust="spacing" textLength="103" x="917.5" y="579.4482">Sched_Task0()</text><rect fill="#E2E2F0" height="30.2969" rx="2.5" ry="2.5" style="stroke:#181818;stroke-width:0.5;" width="117" x="1037.5" y="87.2969"/><text fill="#000000" font-family="sans-serif" font-size="14" lengthAdjust="spacing" textLength="103" x="1044.5" y="107.292">Sched_Task1()</text><rect fill="#E2E2F0" height="30.2969" rx="2.5" ry="2.5" style="stroke:#181818;stroke-width:0.5;" width="117" x="1037.5" y="559.4531"/><text fill="#000000" font-family="sans-serif" font-size="14" lengthAdjust="spacing" textLength="103" x="1044.5" y="579.4482">Sched_Task1()</text><rect fill="#E2E2F0" height="30.2969" rx="2.5" ry="2.5" style="stroke:#181818;stroke-width:0.5;" width="117" x="1164.5" y="87.2969"/><text fill="#000000" font-family="sans-serif" font-size="14" lengthAdjust="spacing" textLength="103" x="1171.5" y="107.292">Sched_Task2()</text><rect fill="#E2E2F0" height="30.2969" rx="2.5" ry="2.5" style="stroke:#181818;stroke-width:0.5;" width="117" x="1164.5" y="559.4531"/><text fill="#000000" font-family="sans-serif" font-size="14" lengthAdjust="spacing" textLength="103" x="1171.5" y="579.4482">Sched_Task2()</text><rect fill="#E2E2F0" height="30.2969" rx="2.5" ry="2.5" style="stroke:#181818;stroke-width:0.5;" width="117" x="1291.5" y="87.2969"/><text fill="#000000" font-family="sans-serif" font-size="14" lengthAdjust="spacing" textLength="103" x="1298.5" y="107.292">Sched_Task3()</text><rect fill="#E2E2F0" height="30.2969" rx="2.5" ry="2.5" style="stroke:#181818;stroke-width:0.5;" width="117" x="1291.5" y="559.4531"/><text fill="#000000" font-family="sans-serif" font-size="14" lengthAdjust="spacing" textLength="103" x="1298.5" y="579.4482">Sched_Task3()</text><text fill="#000000" font-family="sans-serif" font-size="14" lengthAdjust="spacing" textLength="29" x="1418.5" y="115.292">Mcu</text><ellipse cx="1436" cy="50.7969" fill="#E2E2F0" rx="8" ry="8" style="stroke:#181818;stroke-width:0.5;"/><path d="M1436,58.7969 L1436,85.7969 M1423,66.7969 L1449,66.7969 M1436,85.7969 L1423,100.7969 M1436,85.7969 L1449,100.7969 " fill="none" style="stroke:#181818;stroke-width:0.5;"/><text fill="#000000" font-family="sans-serif" font-size="14" lengthAdjust="spacing" textLength="29" x="1418.5" y="572.4482">Mcu</text><ellipse cx="1436" cy="584.25" fill="#E2E2F0" rx="8" ry="8" style="stroke:#181818;stroke-width:0.5;"/><path d="M1436,592.25 L1436,619.25 M1423,600.25 L1449,600.25 M1436,619.25 L1423,634.25 M1436,619.25 L1449,634.25 " fill="none" style="stroke:#181818;stroke-width:0.5;"/><rect fill="#EEEEEE" height="3" style="stroke:#EEEEEE;stroke-width:1.0;" width="1458.5" x="0" y="149.1602"/><line style="stroke:#000000;stroke-width:1.0;" x1="0" x2="1458.5" y1="149.1602" y2="149.1602"/><line style="stroke:#000000;stroke-width:1.0;" x1="0" x2="1458.5" y1="152.1602" y2="152.1602"/><rect fill="#EEEEEE" height="23.1328" style="stroke:#000000;stroke-width:2.0;" width="100" x="679.25" y="138.5938"/><text fill="#000000" font-family="sans-serif" font-size="13" font-weight="bold" lengthAdjust="spacing" textLength="81" x="685.25" y="154.6606">Entry point</text><polygon fill="#181818" points="176.5,188.8594,186.5,192.8594,176.5,196.8594,180.5,192.8594" style="stroke:#181818;stroke-width:1.0;"/><line style="stroke:#181818;stroke-width:1.0;" x1="35.5" x2="182.5" y1="192.8594" y2="192.8594"/><text fill="#000000" font-family="sans-serif" font-size="13" lengthAdjust="spacing" textLength="112" x="42.5" y="187.7935">call Sched_Main()</text><polygon fill="#181818" points="798,217.9922,808,221.9922,798,225.9922,802,221.9922" style="stroke:#181818;stroke-width:1.0;"/><line style="stroke:#181818;stroke-width:1.0;" x1="188.5" x2="804" y1="221.9922" y2="221.9922"/><text fill="#000000" font-family="sans-serif" font-size="13" lengthAdjust="spacing" textLength="179" x="195.5" y="216.9263">call Sched_EntrySequence()</text><polygon fill="#181818" points="1424,247.125,1434,251.125,1424,255.125,1428,251.125" style="stroke:#181818;stroke-width:1.0;"/><line style="stroke:#181818;stroke-width:1.0;" x1="810" x2="1430" y1="251.125" y2="251.125"/><text fill="#000000" font-family="sans-serif" font-size="13" lengthAdjust="spacing" textLength="119" x="817" y="246.0591">call Mcu_Initialize()</text><polygon fill="#181818" points="1424,276.2578,1434,280.2578,1424,284.2578,1428,280.2578" style="stroke:#181818;stroke-width:1.0;"/><line style="stroke:#181818;stroke-width:1.0;" x1="810" x2="1430" y1="280.2578" y2="280.2578"/><text fill="#000000" font-family="sans-serif" font-size="13" lengthAdjust="spacing" textLength="204" x="817" y="275.1919">call Mcu_ServiceWatchdogSow()</text><polygon fill="#181818" points="1424,305.3906,1434,309.3906,1424,313.3906,1428,309.3906" style="stroke:#181818;stroke-width:1.0;"/><line style="stroke:#181818;stroke-width:1.0;" x1="810" x2="1430" y1="309.3906" y2="309.3906"/><text fill="#000000" font-family="sans-serif" font-size="13" lengthAdjust="spacing" textLength="156" x="817" y="304.3247">call Mcu_ReloadSystick()</text><polygon fill="#181818" points="321.5,334.5234,331.5,338.5234,321.5,342.5234,325.5,338.5234" style="stroke:#181818;stroke-width:1.0;"/><line style="stroke:#181818;stroke-width:1.0;" x1="188.5" x2="327.5" y1="338.5234" y2="338.5234"/><text fill="#000000" font-family="sans-serif" font-size="13" lengthAdjust="spacing" textLength="104" x="195.5" y="333.4575">call CountTime()</text><polygon fill="#181818" points="633.5,363.6563,643.5,367.6563,633.5,371.6563,637.5,367.6563" style="stroke:#181818;stroke-width:1.0;"/><line style="stroke:#181818;stroke-width:1.0;" x1="333.5" x2="639.5" y1="367.6563" y2="367.6563"/><text fill="#000000" font-family="sans-serif" font-size="13" lengthAdjust="spacing" textLength="131" x="340.5" y="362.5903">call DeltaTime_u32()</text><polygon fill="#181818" points="470.5,392.7891,480.5,396.7891,470.5,400.7891,474.5,396.7891" style="stroke:#181818;stroke-width:1.0;"/><line style="stroke:#181818;stroke-width:1.0;" x1="188.5" x2="476.5" y1="396.7891" y2="396.7891"/><text fill="#000000" font-family="sans-serif" font-size="13" lengthAdjust="spacing" textLength="173" x="195.5" y="391.7231">call ExecutePendingTasks()</text><polygon fill="#181818" points="957,421.9219,967,425.9219,957,429.9219,961,425.9219" style="stroke:#181818;stroke-width:1.0;"/><line style="stroke:#181818;stroke-width:1.0;" x1="482.5" x2="963" y1="425.9219" y2="425.9219"/><text fill="#000000" font-family="sans-serif" font-size="13" lengthAdjust="spacing" textLength="161" x="489.5" y="420.856">call Sched_Task0() [5ms]</text><polygon fill="#181818" points="1084,451.0547,1094,455.0547,1084,459.0547,1088,455.0547" style="stroke:#181818;stroke-width:1.0;"/><line style="stroke:#181818;stroke-width:1.0;" x1="482.5" x2="1090" y1="455.0547" y2="455.0547"/><text fill="#000000" font-family="sans-serif" font-size="13" lengthAdjust="spacing" textLength="169" x="489.5" y="449.9888">call Sched_Task1() [10ms]</text><polygon fill="#181818" points="1211,480.1875,1221,484.1875,1211,488.1875,1215,484.1875" style="stroke:#181818;stroke-width:1.0;"/><line style="stroke:#181818;stroke-width:1.0;" x1="482.5" x2="1217" y1="484.1875" y2="484.1875"/><text fill="#000000" font-family="sans-serif" font-size="13" lengthAdjust="spacing" textLength="169" x="489.5" y="479.1216">call Sched_Task2() [20ms]</text><polygon fill="#181818" points="1424,509.3203,1434,513.3203,1424,517.3203,1428,513.3203" style="stroke:#181818;stroke-width:1.0;"/><line style="stroke:#181818;stroke-width:1.0;" x1="1223" x2="1430" y1="513.3203" y2="513.3203"/><text fill="#000000" font-family="sans-serif" font-size="13" lengthAdjust="spacing" textLength="178" x="1230" y="508.2544">call Mcu_ServiceWatchdog()</text><polygon fill="#181818" points="1338,538.4531,1348,542.4531,1338,546.4531,1342,542.4531" style="stroke:#181818;stroke-width:1.0;"/><line style="stroke:#181818;stroke-width:1.0;" x1="482.5" x2="1344" y1="542.4531" y2="542.4531"/><text fill="#000000" font-family="sans-serif" font-size="13" lengthAdjust="spacing" textLength="177" x="489.5" y="537.3872">call Sched_Task3() [100ms]</text><!--SRC=[XPF1Jy8m5CRl_XKlE-d1X6tnOe8NvU21X3WI3yQGPrUWeRJOjGh-zVPjwzXWi2LaNT_l-zg-VW205LPooDYQvqvo0rDDxni0G6QrWSdUSgDG0XRDcAfVUW_HJA9TQhC5eNnbYOmN4HNfsQ6nWeaTAWjHwR-Oeb2tTn5PqP18hdAokk3er-htUzPEsRdOyjgk-Uwb9tlEdEKplvXGgpaMcwBMrPLogbVwmgL5CbwuDAb5pHpHVOTurcefLiwW5LfTQyX4MNF8-BVZYeMZXBahCjhkgCRByG0RjzXuW4rQR3B0fYqsFMb4-5KfYgRCLVVENAYCnzLPOQVzPVjFccpYTlzKPWGUWQ6Kq0uGSMNDCw5RNUwahwLn0CcOkS3xuU9L2IjGYhzXDEFcHp3-ZfQjSxtAzE-Wv8rBZNbsA7m7DztDDwaDV2lMn1th7ZwchePFejdfIYlM0U_z4rGjRy5UN2QgsyywSF3ni2q-BsdYSqrCcdXqHPISYn8I9K5KGOCtSVaewVaAQRKjMk8V]--></g></svg>