<?xml version="1.0" encoding="us-ascii" standalone="no"?><svg xmlns="http://www.w3.org/2000/svg" xmlns:xlink="http://www.w3.org/1999/xlink" contentStyleType="text/css" height="935px" preserveAspectRatio="none" style="width:1562px;height:935px;background:#FFFFFF;" version="1.1" viewBox="0 0 1562 935" width="1562px" zoomAndPan="magnify"><defs/><g><text fill="#000000" font-family="sans-serif" font-size="14" font-weight="bold" lengthAdjust="spacing" textLength="80" x="737" y="27.9951">Scheduler</text><rect fill="#DDDDDD" height="886.6484" style="stroke:#181818;stroke-width:0.5;" width="507" x="114" y="43.2969"/><text fill="#000000" font-family="sans-serif" font-size="13" font-weight="bold" lengthAdjust="spacing" textLength="118" x="308.5" y="55.3638">Public functions</text><rect fill="#DDDDDD" height="886.6484" style="stroke:#181818;stroke-width:0.5;" width="931" x="623" y="43.2969"/><text fill="#000000" font-family="sans-serif" font-size="13" font-weight="bold" lengthAdjust="spacing" textLength="129" x="1024" y="55.3638">Internal functions</text><line style="stroke:#181818;stroke-width:0.5;stroke-dasharray:5.0,5.0;" x1="35" x2="35" y1="118.5938" y2="850.6484"/><line style="stroke:#181818;stroke-width:0.5;stroke-dasharray:5.0,5.0;" x1="171" x2="171" y1="118.5938" y2="850.6484"/><line style="stroke:#181818;stroke-width:0.5;stroke-dasharray:5.0,5.0;" x1="325" x2="325" y1="118.5938" y2="850.6484"/><line style="stroke:#181818;stroke-width:0.5;stroke-dasharray:5.0,5.0;" x1="521" x2="521" y1="118.5938" y2="850.6484"/><line style="stroke:#181818;stroke-width:0.5;stroke-dasharray:5.0,5.0;" x1="677" x2="677" y1="118.5938" y2="850.6484"/><line style="stroke:#181818;stroke-width:0.5;stroke-dasharray:5.0,5.0;" x1="826" x2="826" y1="118.5938" y2="850.6484"/><line style="stroke:#181818;stroke-width:0.5;stroke-dasharray:5.0,5.0;" x1="983" x2="983" y1="118.5938" y2="850.6484"/><line style="stroke:#181818;stroke-width:0.5;stroke-dasharray:5.0,5.0;" x1="1110" x2="1110" y1="118.5938" y2="850.6484"/><line style="stroke:#181818;stroke-width:0.5;stroke-dasharray:5.0,5.0;" x1="1237" x2="1237" y1="118.5938" y2="850.6484"/><line style="stroke:#181818;stroke-width:0.5;stroke-dasharray:5.0,5.0;" x1="1364" x2="1364" y1="118.5938" y2="850.6484"/><line style="stroke:#181818;stroke-width:0.5;stroke-dasharray:5.0,5.0;" x1="1491" x2="1491" y1="118.5938" y2="850.6484"/><text fill="#000000" font-family="sans-serif" font-size="14" lengthAdjust="spacing" textLength="55" x="5" y="115.292">External</text><ellipse cx="35.5" cy="50.7969" fill="#E2E2F0" rx="8" ry="8" style="stroke:#181818;stroke-width:0.5;"/><path d="M35.5,58.7969 L35.5,85.7969 M22.5,66.7969 L48.5,66.7969 M35.5,85.7969 L22.5,100.7969 M35.5,85.7969 L48.5,100.7969 " fill="none" style="stroke:#181818;stroke-width:0.5;"/><text fill="#000000" font-family="sans-serif" font-size="14" lengthAdjust="spacing" textLength="55" x="5" y="862.6436">External</text><ellipse cx="35.5" cy="874.4453" fill="#E2E2F0" rx="8" ry="8" style="stroke:#181818;stroke-width:0.5;"/><path d="M35.5,882.4453 L35.5,909.4453 M22.5,890.4453 L48.5,890.4453 M35.5,909.4453 L22.5,924.4453 M35.5,909.4453 L48.5,924.4453 " fill="none" style="stroke:#181818;stroke-width:0.5;"/><rect fill="#E2E2F0" height="30.2969" rx="2.5" ry="2.5" style="stroke:#181818;stroke-width:0.5;" width="107" x="118" y="87.2969"/><text fill="#000000" font-family="sans-serif" font-size="14" lengthAdjust="spacing" textLength="93" x="125" y="107.292">Sched_Main()</text><rect fill="#E2E2F0" height="30.2969" rx="2.5" ry="2.5" style="stroke:#181818;stroke-width:0.5;" width="107" x="118" y="849.6484"/><text fill="#000000" font-family="sans-serif" font-size="14" lengthAdjust="spacing" textLength="93" x="125" y="869.6436">Sched_Main()</text><rect fill="#E2E2F0" height="30.2969" rx="2.5" ry="2.5" style="stroke:#181818;stroke-width:0.5;" width="181" x="235" y="87.2969"/><text fill="#000000" font-family="sans-serif" font-size="14" lengthAdjust="spacing" textLength="167" x="242" y="107.292">Sched_EntrySequence()</text><rect fill="#E2E2F0" height="30.2969" rx="2.5" ry="2.5" style="stroke:#181818;stroke-width:0.5;" width="181" x="235" y="849.6484"/><text fill="#000000" font-family="sans-serif" font-size="14" lengthAdjust="spacing" textLength="167" x="242" y="869.6436">Sched_EntrySequence()</text><rect fill="#E2E2F0" height="30.2969" rx="2.5" ry="2.5" style="stroke:#181818;stroke-width:0.5;" width="191" x="426" y="87.2969"/><text fill="#000000" font-family="sans-serif" font-size="14" lengthAdjust="spacing" textLength="177" x="433" y="107.292">Sched_GetRefTime_u32()</text><rect fill="#E2E2F0" height="30.2969" rx="2.5" ry="2.5" style="stroke:#181818;stroke-width:0.5;" width="191" x="426" y="849.6484"/><text fill="#000000" font-family="sans-serif" font-size="14" lengthAdjust="spacing" textLength="177" x="433" y="869.6436">Sched_GetRefTime_u32()</text><rect fill="#E2E2F0" height="30.2969" rx="2.5" ry="2.5" style="stroke:#181818;stroke-width:0.5;" width="100" x="627" y="87.2969"/><text fill="#000000" font-family="sans-serif" font-size="14" lengthAdjust="spacing" textLength="86" x="634" y="107.292">CountTime()</text><rect fill="#E2E2F0" height="30.2969" rx="2.5" ry="2.5" style="stroke:#181818;stroke-width:0.5;" width="100" x="627" y="849.6484"/><text fill="#000000" font-family="sans-serif" font-size="14" lengthAdjust="spacing" textLength="86" x="634" y="869.6436">CountTime()</text><rect fill="#E2E2F0" height="30.2969" rx="2.5" ry="2.5" style="stroke:#181818;stroke-width:0.5;" width="178" x="737" y="87.2969"/><text fill="#000000" font-family="sans-serif" font-size="14" lengthAdjust="spacing" textLength="164" x="744" y="107.292">ExecutePendingTasks()</text><rect fill="#E2E2F0" height="30.2969" rx="2.5" ry="2.5" style="stroke:#181818;stroke-width:0.5;" width="178" x="737" y="849.6484"/><text fill="#000000" font-family="sans-serif" font-size="14" lengthAdjust="spacing" textLength="164" x="744" y="869.6436">ExecutePendingTasks()</text><rect fill="#E2E2F0" height="30.2969" rx="2.5" ry="2.5" style="stroke:#181818;stroke-width:0.5;" width="117" x="925" y="87.2969"/><text fill="#000000" font-family="sans-serif" font-size="14" lengthAdjust="spacing" textLength="103" x="932" y="107.292">Sched_Task0()</text><rect fill="#E2E2F0" height="30.2969" rx="2.5" ry="2.5" style="stroke:#181818;stroke-width:0.5;" width="117" x="925" y="849.6484"/><text fill="#000000" font-family="sans-serif" font-size="14" lengthAdjust="spacing" textLength="103" x="932" y="869.6436">Sched_Task0()</text><rect fill="#E2E2F0" height="30.2969" rx="2.5" ry="2.5" style="stroke:#181818;stroke-width:0.5;" width="117" x="1052" y="87.2969"/><text fill="#000000" font-family="sans-serif" font-size="14" lengthAdjust="spacing" textLength="103" x="1059" y="107.292">Sched_Task1()</text><rect fill="#E2E2F0" height="30.2969" rx="2.5" ry="2.5" style="stroke:#181818;stroke-width:0.5;" width="117" x="1052" y="849.6484"/><text fill="#000000" font-family="sans-serif" font-size="14" lengthAdjust="spacing" textLength="103" x="1059" y="869.6436">Sched_Task1()</text><rect fill="#E2E2F0" height="30.2969" rx="2.5" ry="2.5" style="stroke:#181818;stroke-width:0.5;" width="117" x="1179" y="87.2969"/><text fill="#000000" font-family="sans-serif" font-size="14" lengthAdjust="spacing" textLength="103" x="1186" y="107.292">Sched_Task2()</text><rect fill="#E2E2F0" height="30.2969" rx="2.5" ry="2.5" style="stroke:#181818;stroke-width:0.5;" width="117" x="1179" y="849.6484"/><text fill="#000000" font-family="sans-serif" font-size="14" lengthAdjust="spacing" textLength="103" x="1186" y="869.6436">Sched_Task2()</text><rect fill="#E2E2F0" height="30.2969" rx="2.5" ry="2.5" style="stroke:#181818;stroke-width:0.5;" width="117" x="1306" y="87.2969"/><text fill="#000000" font-family="sans-serif" font-size="14" lengthAdjust="spacing" textLength="103" x="1313" y="107.292">Sched_Task3()</text><rect fill="#E2E2F0" height="30.2969" rx="2.5" ry="2.5" style="stroke:#181818;stroke-width:0.5;" width="117" x="1306" y="849.6484"/><text fill="#000000" font-family="sans-serif" font-size="14" lengthAdjust="spacing" textLength="103" x="1313" y="869.6436">Sched_Task3()</text><rect fill="#E2E2F0" height="30.2969" rx="2.5" ry="2.5" style="stroke:#181818;stroke-width:0.5;" width="117" x="1433" y="87.2969"/><text fill="#000000" font-family="sans-serif" font-size="14" lengthAdjust="spacing" textLength="103" x="1440" y="107.292">Sched_Task4()</text><rect fill="#E2E2F0" height="30.2969" rx="2.5" ry="2.5" style="stroke:#181818;stroke-width:0.5;" width="117" x="1433" y="849.6484"/><text fill="#000000" font-family="sans-serif" font-size="14" lengthAdjust="spacing" textLength="103" x="1440" y="869.6436">Sched_Task4()</text><rect fill="#EEEEEE" height="3" style="stroke:#EEEEEE;stroke-width:1.0;" width="1555" x="0" y="149.1602"/><line style="stroke:#000000;stroke-width:1.0;" x1="0" x2="1555" y1="149.1602" y2="149.1602"/><line style="stroke:#000000;stroke-width:1.0;" x1="0" x2="1555" y1="152.1602" y2="152.1602"/><rect fill="#EEEEEE" height="23.1328" style="stroke:#000000;stroke-width:2.0;" width="114" x="720.5" y="138.5938"/><text fill="#000000" font-family="sans-serif" font-size="13" font-weight="bold" lengthAdjust="spacing" textLength="95" x="726.5" y="154.6606">Entry point 1</text><polygon fill="#181818" points="159.5,188.8594,169.5,192.8594,159.5,196.8594,163.5,192.8594" style="stroke:#181818;stroke-width:1.0;"/><line style="stroke:#181818;stroke-width:1.0;" x1="35.5" x2="165.5" y1="192.8594" y2="192.8594"/><text fill="#000000" font-family="sans-serif" font-size="13" lengthAdjust="spacing" textLength="112" x="42.5" y="187.7935">call Sched_Main()</text><polygon fill="#181818" points="665,217.9922,675,221.9922,665,225.9922,669,221.9922" style="stroke:#181818;stroke-width:1.0;"/><line style="stroke:#181818;stroke-width:1.0;" x1="171.5" x2="671" y1="221.9922" y2="221.9922"/><text fill="#000000" font-family="sans-serif" font-size="13" lengthAdjust="spacing" textLength="104" x="178.5" y="216.9263">call CountTime()</text><polygon fill="#181818" points="182.5,247.125,172.5,251.125,182.5,255.125,178.5,251.125" style="stroke:#181818;stroke-width:1.0;"/><line style="stroke:#181818;stroke-width:1.0;stroke-dasharray:2.0,2.0;" x1="176.5" x2="676" y1="251.125" y2="251.125"/><text fill="#000000" font-family="sans-serif" font-size="13" lengthAdjust="spacing" textLength="39" x="188.5" y="246.0591">return</text><polygon fill="#181818" points="814,276.2578,824,280.2578,814,284.2578,818,280.2578" style="stroke:#181818;stroke-width:1.0;"/><line style="stroke:#181818;stroke-width:1.0;" x1="171.5" x2="820" y1="280.2578" y2="280.2578"/><text fill="#000000" font-family="sans-serif" font-size="13" lengthAdjust="spacing" textLength="173" x="178.5" y="275.1919">call ExecutePendingTasks()</text><polygon fill="#181818" points="971.5,305.3906,981.5,309.3906,971.5,313.3906,975.5,309.3906" style="stroke:#181818;stroke-width:1.0;"/><line style="stroke:#181818;stroke-width:1.0;" x1="826" x2="977.5" y1="309.3906" y2="309.3906"/><text fill="#000000" font-family="sans-serif" font-size="13" lengthAdjust="spacing" textLength="119" x="833" y="304.3247">call Sched_Task0()</text><polygon fill="#181818" points="837,334.5234,827,338.5234,837,342.5234,833,338.5234" style="stroke:#181818;stroke-width:1.0;"/><line style="stroke:#181818;stroke-width:1.0;stroke-dasharray:2.0,2.0;" x1="831" x2="982.5" y1="338.5234" y2="338.5234"/><text fill="#000000" font-family="sans-serif" font-size="13" lengthAdjust="spacing" textLength="39" x="843" y="333.4575">return</text><polygon fill="#181818" points="1098.5,363.6563,1108.5,367.6563,1098.5,371.6563,1102.5,367.6563" style="stroke:#181818;stroke-width:1.0;"/><line style="stroke:#181818;stroke-width:1.0;" x1="826" x2="1104.5" y1="367.6563" y2="367.6563"/><text fill="#000000" font-family="sans-serif" font-size="13" lengthAdjust="spacing" textLength="119" x="833" y="362.5903">call Sched_Task1()</text><polygon fill="#181818" points="837,392.7891,827,396.7891,837,400.7891,833,396.7891" style="stroke:#181818;stroke-width:1.0;"/><line style="stroke:#181818;stroke-width:1.0;stroke-dasharray:2.0,2.0;" x1="831" x2="1109.5" y1="396.7891" y2="396.7891"/><text fill="#000000" font-family="sans-serif" font-size="13" lengthAdjust="spacing" textLength="39" x="843" y="391.7231">return</text><polygon fill="#181818" points="1225.5,421.9219,1235.5,425.9219,1225.5,429.9219,1229.5,425.9219" style="stroke:#181818;stroke-width:1.0;"/><line style="stroke:#181818;stroke-width:1.0;" x1="826" x2="1231.5" y1="425.9219" y2="425.9219"/><text fill="#000000" font-family="sans-serif" font-size="13" lengthAdjust="spacing" textLength="119" x="833" y="420.856">call Sched_Task2()</text><polygon fill="#181818" points="837,451.0547,827,455.0547,837,459.0547,833,455.0547" style="stroke:#181818;stroke-width:1.0;"/><line style="stroke:#181818;stroke-width:1.0;stroke-dasharray:2.0,2.0;" x1="831" x2="1236.5" y1="455.0547" y2="455.0547"/><text fill="#000000" font-family="sans-serif" font-size="13" lengthAdjust="spacing" textLength="39" x="843" y="449.9888">return</text><polygon fill="#181818" points="1352.5,480.1875,1362.5,484.1875,1352.5,488.1875,1356.5,484.1875" style="stroke:#181818;stroke-width:1.0;"/><line style="stroke:#181818;stroke-width:1.0;" x1="826" x2="1358.5" y1="484.1875" y2="484.1875"/><text fill="#000000" font-family="sans-serif" font-size="13" lengthAdjust="spacing" textLength="119" x="833" y="479.1216">call Sched_Task3()</text><polygon fill="#181818" points="837,509.3203,827,513.3203,837,517.3203,833,513.3203" style="stroke:#181818;stroke-width:1.0;"/><line style="stroke:#181818;stroke-width:1.0;stroke-dasharray:2.0,2.0;" x1="831" x2="1363.5" y1="513.3203" y2="513.3203"/><text fill="#000000" font-family="sans-serif" font-size="13" lengthAdjust="spacing" textLength="39" x="843" y="508.2544">return</text><polygon fill="#181818" points="1479.5,538.4531,1489.5,542.4531,1479.5,546.4531,1483.5,542.4531" style="stroke:#181818;stroke-width:1.0;"/><line style="stroke:#181818;stroke-width:1.0;" x1="826" x2="1485.5" y1="542.4531" y2="542.4531"/><text fill="#000000" font-family="sans-serif" font-size="13" lengthAdjust="spacing" textLength="119" x="833" y="537.3872">call Sched_Task4()</text><polygon fill="#181818" points="837,567.5859,827,571.5859,837,575.5859,833,571.5859" style="stroke:#181818;stroke-width:1.0;"/><line style="stroke:#181818;stroke-width:1.0;stroke-dasharray:2.0,2.0;" x1="831" x2="1490.5" y1="571.5859" y2="571.5859"/><text fill="#000000" font-family="sans-serif" font-size="13" lengthAdjust="spacing" textLength="39" x="843" y="566.52">return</text><polygon fill="#181818" points="182.5,596.7188,172.5,600.7188,182.5,604.7188,178.5,600.7188" style="stroke:#181818;stroke-width:1.0;"/><line style="stroke:#181818;stroke-width:1.0;stroke-dasharray:2.0,2.0;" x1="176.5" x2="825" y1="600.7188" y2="600.7188"/><text fill="#000000" font-family="sans-serif" font-size="13" lengthAdjust="spacing" textLength="39" x="188.5" y="595.6528">return</text><polygon fill="#181818" points="46.5,625.8516,36.5,629.8516,46.5,633.8516,42.5,629.8516" style="stroke:#181818;stroke-width:1.0;"/><line style="stroke:#181818;stroke-width:1.0;stroke-dasharray:2.0,2.0;" x1="40.5" x2="170.5" y1="629.8516" y2="629.8516"/><text fill="#000000" font-family="sans-serif" font-size="13" lengthAdjust="spacing" textLength="39" x="52.5" y="624.7856">return</text><rect fill="#EEEEEE" height="3" style="stroke:#EEEEEE;stroke-width:1.0;" width="1555" x="0" y="658.418"/><line style="stroke:#000000;stroke-width:1.0;" x1="0" x2="1555" y1="658.418" y2="658.418"/><line style="stroke:#000000;stroke-width:1.0;" x1="0" x2="1555" y1="661.418" y2="661.418"/><rect fill="#EEEEEE" height="23.1328" style="stroke:#000000;stroke-width:2.0;" width="114" x="720.5" y="647.8516"/><text fill="#000000" font-family="sans-serif" font-size="13" font-weight="bold" lengthAdjust="spacing" textLength="95" x="726.5" y="663.9185">Entry point 2</text><polygon fill="#181818" points="313.5,698.1172,323.5,702.1172,313.5,706.1172,317.5,702.1172" style="stroke:#181818;stroke-width:1.0;"/><line style="stroke:#181818;stroke-width:1.0;" x1="35.5" x2="319.5" y1="702.1172" y2="702.1172"/><text fill="#000000" font-family="sans-serif" font-size="13" lengthAdjust="spacing" textLength="179" x="42.5" y="697.0513">call Sched_EntrySequence()</text><polygon fill="#181818" points="46.5,727.25,36.5,731.25,46.5,735.25,42.5,731.25" style="stroke:#181818;stroke-width:1.0;"/><line style="stroke:#181818;stroke-width:1.0;stroke-dasharray:2.0,2.0;" x1="40.5" x2="324.5" y1="731.25" y2="731.25"/><text fill="#000000" font-family="sans-serif" font-size="13" lengthAdjust="spacing" textLength="39" x="52.5" y="726.1841">return</text><rect fill="#EEEEEE" height="3" style="stroke:#EEEEEE;stroke-width:1.0;" width="1555" x="0" y="759.8164"/><line style="stroke:#000000;stroke-width:1.0;" x1="0" x2="1555" y1="759.8164" y2="759.8164"/><line style="stroke:#000000;stroke-width:1.0;" x1="0" x2="1555" y1="762.8164" y2="762.8164"/><rect fill="#EEEEEE" height="23.1328" style="stroke:#000000;stroke-width:2.0;" width="114" x="720.5" y="749.25"/><text fill="#000000" font-family="sans-serif" font-size="13" font-weight="bold" lengthAdjust="spacing" textLength="95" x="726.5" y="765.3169">Entry point 3</text><polygon fill="#181818" points="509.5,799.5156,519.5,803.5156,509.5,807.5156,513.5,803.5156" style="stroke:#181818;stroke-width:1.0;"/><line style="stroke:#181818;stroke-width:1.0;" x1="35.5" x2="515.5" y1="803.5156" y2="803.5156"/><text fill="#000000" font-family="sans-serif" font-size="13" lengthAdjust="spacing" textLength="187" x="42.5" y="798.4497">call Sched_GetRefTime_u32()</text><polygon fill="#181818" points="46.5,828.6484,36.5,832.6484,46.5,836.6484,42.5,832.6484" style="stroke:#181818;stroke-width:1.0;"/><line style="stroke:#181818;stroke-width:1.0;stroke-dasharray:2.0,2.0;" x1="40.5" x2="520.5" y1="832.6484" y2="832.6484"/><text fill="#000000" font-family="sans-serif" font-size="13" lengthAdjust="spacing" textLength="39" x="52.5" y="827.5825">return</text><!--SRC=[ZPD1RuCW5CVlxrCGJzkXIHLFIznbQPOTbZIhzuRIrvNCOOUGTDz-eA0MjTbDuVVxytY05hf2ikDdF9eA5G3ZkbPaSzMe9Ai8Q_flW4Dz9SdM72h1oSb8haKjcmG8kJ2b1HSN9ZL9sh3zEnFouJ5n0SF0FBgHMltkyCUWvEYTTcmUVqNzWQTIVEFUqCpptI2WF19RfI_rJVfTB1VxKXkfNPRFwVzZS7D5RZHkxGf2VfQi-Mf2gNPclb97hJrLhfUPD33fCXCsMcRB30qCNMRomEH3iugYwpUvrCBIAIaAw6_0wdbqWEI9S5PLP7p6C9gsSD_1m8vQ3CFaAivLg8sI4AMvveQWsIE0bh1akRujpZSVxFXg2FAhz58wbL8dfVUaR2fbJihkINGgKIVHUr8-bN8dvJEIjnRwEcvhg_hZ7VJe5cJnBUWcR-g9NYvqoF_oQPpVFU7R1UAt3XwQNU8F]--></g></svg>