<?xml version="1.0" encoding="UTF-8" standalone="no"?>
<!DOCTYPE svg PUBLIC "-//W3C//DTD SVG 1.1//EN"
 "http://www.w3.org/Graphics/SVG/1.1/DTD/svg11.dtd">
<!-- Generated by graphviz version 2.43.0 (0)
 -->
<!-- Title: test/unitTest/TEST_Sched_EntrySequence/src/Mcu.h Pages: 1 -->
<svg width="379pt" height="291pt"
 viewBox="0.00 0.00 378.50 291.00" xmlns="http://www.w3.org/2000/svg" xmlns:xlink="http://www.w3.org/1999/xlink">

<svg id="main" version="1.1" xmlns="http://www.w3.org/2000/svg" xmlns:xlink="http://www.w3.org/1999/xlink" xml:space="preserve">

<style type="text/css"><![CDATA[
.node, .edge {opacity: 0.7;}
.node.selected, .edge.selected {opacity: 1;}
.edge:hover path { stroke: red; }
.edge:hover polygon { stroke: red; fill: red; }
]]></style>
<script type="application/ecmascript" xlink:href="svg.min.js"/>
<svg id="graph" class="graph">
<g id="graph0" class="graph" transform="scale(1 1) rotate(0) translate(4 287)">
<title>test/unitTest/TEST_Sched_EntrySequence/src/Mcu.h</title>
<!-- Node1 -->
<g id="Node000001" class="node">
<title>Node1</title>
<g id="a_Node000001"><a xlink:title=" ">
<polygon fill="#999999" stroke="#666666" points="182.5,-283 53.5,-283 53.5,-242 182.5,-242 182.5,-283"/>
<text text-anchor="start" x="61.5" y="-271" font-family="Helvetica,sans-Serif" font-size="10.00">test/unitTest/TEST</text>
<text text-anchor="start" x="61.5" y="-260" font-family="Helvetica,sans-Serif" font-size="10.00">_Sched_EntrySequence</text>
<text text-anchor="middle" x="118" y="-249" font-family="Helvetica,sans-Serif" font-size="10.00">/src/Mcu.h</text>
</a>
</g>
</g>
<!-- Node2 -->
<g id="Node000002" class="node">
<title>Node2</title>
<g id="a_Node000002"><a xlink:href="Sched__Cfg_8c.html" target="_top" xlink:title=" ">
<polygon fill="white" stroke="#666666" points="94,-195 0,-195 0,-176 94,-176 94,-195"/>
<text text-anchor="middle" x="47" y="-183" font-family="Helvetica,sans-Serif" font-size="10.00">cfg/Sched_Cfg.c</text>
</a>
</g>
</g>
<!-- Node1&#45;&gt;Node2 -->
<g id="edge1_Node000001_Node000002" class="edge">
<title>Node1&#45;&gt;Node2</title>
<g id="a_edge1_Node000001_Node000002"><a xlink:title=" ">
<path fill="none" stroke="#63b8ff" d="M92.35,-234.4C79.3,-220.62 64.33,-204.8 55.27,-195.24"/>
<polygon fill="#63b8ff" stroke="#63b8ff" points="89.93,-236.94 99.35,-241.79 95.01,-232.13 89.93,-236.94"/>
</a>
</g>
</g>
<!-- Node3 -->
<g id="Node000003" class="node">
<title>Node3</title>
<g id="a_Node000003"><a xlink:href="Sched__EntrySequence_8h.html" target="_top" xlink:title=" ">
<polygon fill="white" stroke="#666666" points="265.5,-206 112.5,-206 112.5,-165 265.5,-165 265.5,-206"/>
<text text-anchor="start" x="120.5" y="-194" font-family="Helvetica,sans-Serif" font-size="10.00">test/unitTest/TEST</text>
<text text-anchor="start" x="120.5" y="-183" font-family="Helvetica,sans-Serif" font-size="10.00">_Sched_EntrySequence</text>
<text text-anchor="middle" x="189" y="-172" font-family="Helvetica,sans-Serif" font-size="10.00">/src/Sched_EntrySequence.h</text>
</a>
</g>
</g>
<!-- Node1&#45;&gt;Node3 -->
<g id="edge2_Node000001_Node000003" class="edge">
<title>Node1&#45;&gt;Node3</title>
<g id="a_edge2_Node000001_Node000003"><a xlink:title=" ">
<path fill="none" stroke="#63b8ff" d="M143.55,-234.51C152.45,-225.11 162.25,-214.76 170.47,-206.07"/>
<polygon fill="#63b8ff" stroke="#63b8ff" points="140.99,-232.13 136.65,-241.79 146.07,-236.94 140.99,-232.13"/>
</a>
</g>
</g>
<!-- Node4 -->
<g id="Node000004" class="node">
<title>Node4</title>
<g id="a_Node000004"><a xlink:href="Sched__EntrySequence__help_8h.html" target="_top" xlink:title=" ">
<polygon fill="white" stroke="#666666" points="171,-129 27,-129 27,-77 171,-77 171,-129"/>
<text text-anchor="start" x="35" y="-117" font-family="Helvetica,sans-Serif" font-size="10.00">test/unitTest/TEST</text>
<text text-anchor="start" x="35" y="-106" font-family="Helvetica,sans-Serif" font-size="10.00">_Sched_EntrySequence</text>
<text text-anchor="start" x="35" y="-95" font-family="Helvetica,sans-Serif" font-size="10.00">/src/Sched_EntrySequence</text>
<text text-anchor="middle" x="99" y="-84" font-family="Helvetica,sans-Serif" font-size="10.00">_help.h</text>
</a>
</g>
</g>
<!-- Node3&#45;&gt;Node4 -->
<g id="edge3_Node000003_Node000004" class="edge">
<title>Node3&#45;&gt;Node4</title>
<g id="a_edge3_Node000003_Node000004"><a xlink:title=" ">
<path fill="none" stroke="#63b8ff" d="M159.14,-157.79C148.82,-148.56 137.3,-138.26 127.12,-129.16"/>
<polygon fill="#63b8ff" stroke="#63b8ff" points="156.97,-160.54 166.75,-164.6 161.63,-155.33 156.97,-160.54"/>
</a>
</g>
</g>
<!-- Node6 -->
<g id="Node000006" class="node">
<title>Node6</title>
<g id="a_Node000006"><a xlink:href="test__Sched__EntrySequence_8c.html" target="_top" xlink:title="Unit tests for Sched_EntrySequence.">
<polygon fill="white" stroke="#666666" points="370.5,-123.5 189.5,-123.5 189.5,-82.5 370.5,-82.5 370.5,-123.5"/>
<text text-anchor="start" x="197.5" y="-111.5" font-family="Helvetica,sans-Serif" font-size="10.00">test/unitTest/TEST</text>
<text text-anchor="start" x="197.5" y="-100.5" font-family="Helvetica,sans-Serif" font-size="10.00">_Sched_EntrySequence</text>
<text text-anchor="middle" x="280" y="-89.5" font-family="Helvetica,sans-Serif" font-size="10.00">/test/test_Sched_EntrySequence.c</text>
</a>
</g>
</g>
<!-- Node3&#45;&gt;Node6 -->
<g id="edge5_Node000003_Node000006" class="edge">
<title>Node3&#45;&gt;Node6</title>
<g id="a_edge5_Node000003_Node000006"><a xlink:title=" ">
<path fill="none" stroke="#63b8ff" d="M219.08,-157.89C231.7,-146.72 246.12,-133.97 257.76,-123.67"/>
<polygon fill="#63b8ff" stroke="#63b8ff" points="216.67,-155.35 211.49,-164.6 221.3,-160.6 216.67,-155.35"/>
</a>
</g>
</g>
<!-- Node5 -->
<g id="Node000005" class="node">
<title>Node5</title>
<g id="a_Node000005"><a xlink:href="Sched__EntrySequence_8c.html" target="_top" xlink:title=" ">
<polygon fill="white" stroke="#666666" points="175,-41 23,-41 23,0 175,0 175,-41"/>
<text text-anchor="start" x="31" y="-29" font-family="Helvetica,sans-Serif" font-size="10.00">test/unitTest/TEST</text>
<text text-anchor="start" x="31" y="-18" font-family="Helvetica,sans-Serif" font-size="10.00">_Sched_EntrySequence</text>
<text text-anchor="middle" x="99" y="-7" font-family="Helvetica,sans-Serif" font-size="10.00">/src/Sched_EntrySequence.c</text>
</a>
</g>
</g>
<!-- Node4&#45;&gt;Node5 -->
<g id="edge4_Node000004_Node000005" class="edge">
<title>Node4&#45;&gt;Node5</title>
<g id="a_edge4_Node000004_Node000005"><a xlink:title=" ">
<path fill="none" stroke="#63b8ff" d="M99,-66.87C99,-58.05 99,-48.9 99,-41.15"/>
<polygon fill="#63b8ff" stroke="#63b8ff" points="95.5,-66.97 99,-76.97 102.5,-66.97 95.5,-66.97"/>
</a>
</g>
</g>
</g>
</svg>
</svg>

<style type='text/css'>
<![CDATA[
[data-mouse-over-selected='false'] { opacity: 0.7; }
[data-mouse-over-selected='true']  { opacity: 1.0; }
]]>
</style>
<script type="application/ecmascript"><![CDATA[
document.addEventListener('DOMContentLoaded', (event) => {
  highlightEdges();
  highlightAdjacentNodes();
});
]]></script>
</svg>
