<?xml version="1.0" encoding="UTF-8" standalone="no"?>
<!DOCTYPE svg PUBLIC "-//W3C//DTD SVG 1.1//EN"
 "http://www.w3.org/Graphics/SVG/1.1/DTD/svg11.dtd">
<!-- Generated by graphviz version 2.43.0 (0)
 -->
<!-- Title: cfg/Sched_Priv.c Pages: 1 -->
<svg width="238pt" height="137pt"
 viewBox="0.00 0.00 237.50 137.00" xmlns="http://www.w3.org/2000/svg" xmlns:xlink="http://www.w3.org/1999/xlink">

<svg id="main" version="1.1" xmlns="http://www.w3.org/2000/svg" xmlns:xlink="http://www.w3.org/1999/xlink" xml:space="preserve" onload="init(evt)">
<style type="text/css"><![CDATA[
.node, .edge {opacity: 0.7;}
.node.selected, .edge.selected {opacity: 1;}
.edge:hover path { stroke: red; }
.edge:hover polygon { stroke: red; fill: red; }
]]></style>
<script type="application/ecmascript" xlink:href="svg.min.js"/>
<svg id="graph" class="graph">
<g id="graph0" class="graph" transform="scale(1 1) rotate(0) translate(4 133)">
<title>cfg/Sched_Priv.c</title>
<!-- Node1 -->
<g id="Node000001" class="node">
<title>Node1</title>
<g id="a_Node000001"><a xlink:title=" ">
<polygon fill="#999999" stroke="#666666" points="214,-129 119,-129 119,-110 214,-110 214,-129"/>
<text text-anchor="middle" x="166.5" y="-117" font-family="Helvetica,sans-Serif" font-size="10.00">cfg/Sched_Priv.c</text>
</a>
</g>
</g>
<!-- Node2 -->
<g id="Node000002" class="node">
<title>Node2</title>
<g id="a_Node000002"><a xlink:href="Sched__Priv_8h.html" target="_top" xlink:title=" ">
<polygon fill="white" stroke="#666666" points="165.5,-74 87.5,-74 87.5,-55 165.5,-55 165.5,-74"/>
<text text-anchor="middle" x="126.5" y="-62" font-family="Helvetica,sans-Serif" font-size="10.00">Sched_Priv.h</text>
</a>
</g>
</g>
<!-- Node1&#45;&gt;Node2 -->
<g id="edge1_Node000001_Node000002" class="edge">
<title>Node1&#45;&gt;Node2</title>
<g id="a_edge1_Node000001_Node000002"><a xlink:title=" ">
<path fill="none" stroke="#63b8ff" d="M159.89,-109.75C154.24,-102.26 145.96,-91.28 139.05,-82.13"/>
<polygon fill="#63b8ff" stroke="#63b8ff" points="141.8,-79.96 132.98,-74.09 136.21,-84.18 141.8,-79.96"/>
</a>
</g>
</g>
<!-- Node6 -->
<g id="Node000006" class="node">
<title>Node6</title>
<g id="a_Node000006"><a xlink:title=" ">
<polygon fill="#e0e0e0" stroke="#999999" points="229.5,-74 183.5,-74 183.5,-55 229.5,-55 229.5,-74"/>
<text text-anchor="middle" x="206.5" y="-62" font-family="Helvetica,sans-Serif" font-size="10.00">Mcu.h</text>
</a>
</g>
</g>
<!-- Node1&#45;&gt;Node6 -->
<g id="edge5_Node000001_Node000006" class="edge">
<title>Node1&#45;&gt;Node6</title>
<g id="a_edge5_Node000001_Node000006"><a xlink:title=" ">
<path fill="none" stroke="#63b8ff" d="M173.11,-109.75C178.76,-102.26 187.04,-91.28 193.95,-82.13"/>
<polygon fill="#63b8ff" stroke="#63b8ff" points="196.79,-84.18 200.02,-74.09 191.2,-79.96 196.79,-84.18"/>
</a>
</g>
</g>
<!-- Node3 -->
<g id="Node000003" class="node">
<title>Node3</title>
<g id="a_Node000003"><a xlink:href="Sched__Cfg_8h.html" target="_top" xlink:title=" ">
<polygon fill="white" stroke="#666666" points="77,-19 0,-19 0,0 77,0 77,-19"/>
<text text-anchor="middle" x="38.5" y="-7" font-family="Helvetica,sans-Serif" font-size="10.00">Sched_Cfg.h</text>
</a>
</g>
</g>
<!-- Node2&#45;&gt;Node3 -->
<g id="edge2_Node000002_Node000003" class="edge">
<title>Node2&#45;&gt;Node3</title>
<g id="a_edge2_Node000002_Node000003"><a xlink:title=" ">
<path fill="none" stroke="#63b8ff" d="M112.36,-54.98C98.71,-46.77 77.81,-34.18 61.72,-24.49"/>
<polygon fill="#63b8ff" stroke="#63b8ff" points="63.27,-21.33 52.9,-19.17 59.66,-27.33 63.27,-21.33"/>
</a>
</g>
</g>
<!-- Node4 -->
<g id="Node000004" class="node">
<title>Node4</title>
<g id="a_Node000004"><a xlink:title=" ">
<polygon fill="#e0e0e0" stroke="#999999" points="157.5,-19 95.5,-19 95.5,0 157.5,0 157.5,-19"/>
<text text-anchor="middle" x="126.5" y="-7" font-family="Helvetica,sans-Serif" font-size="10.00">stdbool.h</text>
</a>
</g>
</g>
<!-- Node2&#45;&gt;Node4 -->
<g id="edge3_Node000002_Node000004" class="edge">
<title>Node2&#45;&gt;Node4</title>
<g id="a_edge3_Node000002_Node000004"><a xlink:title=" ">
<path fill="none" stroke="#63b8ff" d="M126.5,-54.75C126.5,-47.8 126.5,-37.85 126.5,-29.13"/>
<polygon fill="#63b8ff" stroke="#63b8ff" points="130,-29.09 126.5,-19.09 123,-29.09 130,-29.09"/>
</a>
</g>
</g>
<!-- Node5 -->
<g id="Node000005" class="node">
<title>Node5</title>
<g id="a_Node000005"><a xlink:title=" ">
<polygon fill="#e0e0e0" stroke="#999999" points="229,-19 176,-19 176,0 229,0 229,-19"/>
<text text-anchor="middle" x="202.5" y="-7" font-family="Helvetica,sans-Serif" font-size="10.00">stdint.h</text>
</a>
</g>
</g>
<!-- Node2&#45;&gt;Node5 -->
<g id="edge4_Node000002_Node000005" class="edge">
<title>Node2&#45;&gt;Node5</title>
<g id="a_edge4_Node000002_Node000005"><a xlink:title=" ">
<path fill="none" stroke="#63b8ff" d="M138.71,-54.98C150.28,-46.92 167.88,-34.65 181.66,-25.03"/>
<polygon fill="#63b8ff" stroke="#63b8ff" points="183.87,-27.76 190.07,-19.17 179.86,-22.02 183.87,-27.76"/>
</a>
</g>
</g>
</g>
</svg>
</svg>

<style type='text/css'>
<![CDATA[
[data-mouse-over-selected='false'] { opacity: 0.7; }
[data-mouse-over-selected='true']  { opacity: 1.0; }
]]>
</style>
<script type="application/ecmascript"><![CDATA[
document.addEventListener('DOMContentLoaded', (event) => {
  highlightEdges();
  highlightAdjacentNodes();
});
]]></script>
</svg>
