<?xml version="1.0" encoding="UTF-8" standalone="no"?>
<!DOCTYPE svg PUBLIC "-//W3C//DTD SVG 1.1//EN"
 "http://www.w3.org/Graphics/SVG/1.1/DTD/svg11.dtd">
<!-- Generated by graphviz version 2.43.0 (0)
 -->
<!-- Title: cfg/Sched_Cfg.c Pages: 1 -->
<svg width="226pt" height="192pt"
 viewBox="0.00 0.00 226.00 192.00" xmlns="http://www.w3.org/2000/svg" xmlns:xlink="http://www.w3.org/1999/xlink">

<svg id="main" version="1.1" xmlns="http://www.w3.org/2000/svg" xmlns:xlink="http://www.w3.org/1999/xlink" xml:space="preserve" onload="init(evt)">
<style type="text/css"><![CDATA[
.node, .edge {opacity: 0.7;}
.node.selected, .edge.selected {opacity: 1;}
.edge:hover path { stroke: red; }
.edge:hover polygon { stroke: red; fill: red; }
]]></style>
<script type="application/ecmascript" xlink:href="svg.min.js"/>
<svg id="graph" class="graph">
<g id="graph0" class="graph" transform="scale(1 1) rotate(0) translate(4 188)">
<title>cfg/Sched_Cfg.c</title>
<!-- Node1 -->
<g id="Node000001" class="node">
<title>Node1</title>
<g id="a_Node000001"><a xlink:title=" ">
<polygon fill="#999999" stroke="#666666" points="130,-184 36,-184 36,-165 130,-165 130,-184"/>
<text text-anchor="middle" x="83" y="-172" font-family="Helvetica,sans-Serif" font-size="10.00">cfg/Sched_Cfg.c</text>
</a>
</g>
</g>
<!-- Node2 -->
<g id="Node000002" class="node">
<title>Node2</title>
<g id="a_Node000002"><a xlink:href="Sched__Cfg_8h.html" target="_top" xlink:title=" ">
<polygon fill="white" stroke="#666666" points="121.5,-129 44.5,-129 44.5,-110 121.5,-110 121.5,-129"/>
<text text-anchor="middle" x="83" y="-117" font-family="Helvetica,sans-Serif" font-size="10.00">Sched_Cfg.h</text>
</a>
</g>
</g>
<!-- Node1&#45;&gt;Node2 -->
<g id="edge1_Node000001_Node000002" class="edge">
<title>Node1&#45;&gt;Node2</title>
<g id="a_edge1_Node000001_Node000002"><a xlink:title=" ">
<path fill="none" stroke="#63b8ff" d="M83,-164.75C83,-157.8 83,-147.85 83,-139.13"/>
<polygon fill="#63b8ff" stroke="#63b8ff" points="86.5,-139.09 83,-129.09 79.5,-139.09 86.5,-139.09"/>
</a>
</g>
</g>
<!-- Node3 -->
<g id="Node000003" class="node">
<title>Node3</title>
<g id="a_Node000003"><a xlink:href="Sched__Priv_8h.html" target="_top" xlink:title=" ">
<polygon fill="white" stroke="#666666" points="78,-74 0,-74 0,-55 78,-55 78,-74"/>
<text text-anchor="middle" x="39" y="-62" font-family="Helvetica,sans-Serif" font-size="10.00">Sched_Priv.h</text>
</a>
</g>
</g>
<!-- Node1&#45;&gt;Node3 -->
<g id="edge10_Node000001_Node000003" class="edge">
<title>Node1&#45;&gt;Node3</title>
<g id="a_edge10_Node000001_Node000003"><a xlink:title=" ">
<path fill="none" stroke="#63b8ff" d="M68.63,-164.96C57.13,-157.21 41.82,-144.62 35,-129 28.79,-114.76 30.61,-97.01 33.51,-83.89"/>
<polygon fill="#63b8ff" stroke="#63b8ff" points="36.91,-84.71 36.05,-74.15 30.14,-82.94 36.91,-84.71"/>
</a>
</g>
</g>
<!-- Node6 -->
<g id="Node000006" class="node">
<title>Node6</title>
<g id="a_Node000006"><a xlink:href="Sched_8h.html" target="_top" xlink:title=" ">
<polygon fill="white" stroke="#666666" points="194.5,-129 139.5,-129 139.5,-110 194.5,-110 194.5,-129"/>
<text text-anchor="middle" x="167" y="-117" font-family="Helvetica,sans-Serif" font-size="10.00">Sched.h</text>
</a>
</g>
</g>
<!-- Node1&#45;&gt;Node6 -->
<g id="edge7_Node000001_Node000006" class="edge">
<title>Node1&#45;&gt;Node6</title>
<g id="a_edge7_Node000001_Node000006"><a xlink:title=" ">
<path fill="none" stroke="#63b8ff" d="M96.5,-164.98C109.4,-156.84 129.1,-144.41 144.4,-134.76"/>
<polygon fill="#63b8ff" stroke="#63b8ff" points="146.67,-137.47 153.26,-129.17 142.93,-131.55 146.67,-137.47"/>
</a>
</g>
</g>
<!-- Node2&#45;&gt;Node3 -->
<g id="edge2_Node000002_Node000003" class="edge">
<title>Node2&#45;&gt;Node3</title>
<g id="a_edge2_Node000002_Node000003"><a xlink:title=" ">
<path fill="none" stroke="#63b8ff" d="M70.57,-109.75C62.82,-102.34 53.44,-91.5 46.7,-82.41"/>
<polygon fill="#63b8ff" stroke="#63b8ff" points="49.54,-80.36 41,-74.09 43.76,-84.32 49.54,-80.36"/>
</a>
</g>
</g>
<!-- Node5 -->
<g id="Node000005" class="node">
<title>Node5</title>
<g id="a_Node000005"><a xlink:title=" ">
<polygon fill="#e0e0e0" stroke="#999999" points="137.5,-19 84.5,-19 84.5,0 137.5,0 137.5,-19"/>
<text text-anchor="middle" x="111" y="-7" font-family="Helvetica,sans-Serif" font-size="10.00">stdint.h</text>
</a>
</g>
</g>
<!-- Node2&#45;&gt;Node5 -->
<g id="edge6_Node000002_Node000005" class="edge">
<title>Node2&#45;&gt;Node5</title>
<g id="a_edge6_Node000002_Node000005"><a xlink:title=" ">
<path fill="none" stroke="#63b8ff" d="M85.29,-109.66C89.85,-92.09 100.12,-52.45 106.22,-28.95"/>
<polygon fill="#63b8ff" stroke="#63b8ff" points="109.63,-29.72 108.76,-19.16 102.86,-27.96 109.63,-29.72"/>
</a>
</g>
</g>
<!-- Node3&#45;&gt;Node2 -->
<g id="edge3_Node000003_Node000002" class="edge">
<title>Node3&#45;&gt;Node2</title>
<g id="a_edge3_Node000003_Node000002"><a xlink:title=" ">
<path fill="none" stroke="#63b8ff" d="M51.26,-74.09C58.98,-81.45 68.37,-92.27 75.15,-101.39"/>
<polygon fill="#63b8ff" stroke="#63b8ff" points="72.35,-103.49 80.9,-109.75 78.12,-99.52 72.35,-103.49"/>
</a>
</g>
</g>
<!-- Node4 -->
<g id="Node000004" class="node">
<title>Node4</title>
<g id="a_Node000004"><a xlink:title=" ">
<polygon fill="#e0e0e0" stroke="#999999" points="66,-19 4,-19 4,0 66,0 66,-19"/>
<text text-anchor="middle" x="35" y="-7" font-family="Helvetica,sans-Serif" font-size="10.00">stdbool.h</text>
</a>
</g>
</g>
<!-- Node3&#45;&gt;Node4 -->
<g id="edge4_Node000003_Node000004" class="edge">
<title>Node3&#45;&gt;Node4</title>
<g id="a_edge4_Node000003_Node000004"><a xlink:title=" ">
<path fill="none" stroke="#63b8ff" d="M38.34,-54.75C37.82,-47.8 37.06,-37.85 36.41,-29.13"/>
<polygon fill="#63b8ff" stroke="#63b8ff" points="39.89,-28.8 35.65,-19.09 32.91,-29.32 39.89,-28.8"/>
</a>
</g>
</g>
<!-- Node3&#45;&gt;Node5 -->
<g id="edge5_Node000003_Node000005" class="edge">
<title>Node3&#45;&gt;Node5</title>
<g id="a_edge5_Node000003_Node000005"><a xlink:title=" ">
<path fill="none" stroke="#63b8ff" d="M50.57,-54.98C61.42,-47 77.88,-34.88 90.88,-25.31"/>
<polygon fill="#63b8ff" stroke="#63b8ff" points="93.24,-27.92 99.22,-19.17 89.09,-22.28 93.24,-27.92"/>
</a>
</g>
</g>
<!-- Node6&#45;&gt;Node5 -->
<g id="edge9_Node000006_Node000005" class="edge">
<title>Node6&#45;&gt;Node5</title>
<g id="a_edge9_Node000006_Node000005"><a xlink:title=" ">
<path fill="none" stroke="#63b8ff" d="M162.42,-109.66C153.22,-91.93 132.38,-51.73 120.24,-28.32"/>
<polygon fill="#63b8ff" stroke="#63b8ff" points="123.2,-26.42 115.49,-19.16 116.99,-29.65 123.2,-26.42"/>
</a>
</g>
</g>
<!-- Node7 -->
<g id="Node000007" class="node">
<title>Node7</title>
<g id="a_Node000007"><a xlink:title=" ">
<polygon fill="#e0e0e0" stroke="#999999" points="218,-74 172,-74 172,-55 218,-55 218,-74"/>
<text text-anchor="middle" x="195" y="-62" font-family="Helvetica,sans-Serif" font-size="10.00">Mcu.h</text>
</a>
</g>
</g>
<!-- Node6&#45;&gt;Node7 -->
<g id="edge8_Node000006_Node000007" class="edge">
<title>Node6&#45;&gt;Node7</title>
<g id="a_edge8_Node000006_Node000007"><a xlink:title=" ">
<path fill="none" stroke="#63b8ff" d="M171.62,-109.75C175.46,-102.49 181.02,-91.95 185.76,-82.98"/>
<polygon fill="#63b8ff" stroke="#63b8ff" points="188.89,-84.57 190.46,-74.09 182.7,-81.3 188.89,-84.57"/>
</a>
</g>
</g>
</g>
</svg>
</svg>

<style type='text/css'>
<![CDATA[
[data-mouse-over-selected='false'] { opacity: 0.7; }
[data-mouse-over-selected='true']  { opacity: 1.0; }
]]>
</style>
<script type="application/ecmascript"><![CDATA[
document.addEventListener('DOMContentLoaded', (event) => {
  highlightEdges();
  highlightAdjacentNodes();
});
]]></script>
</svg>
