<?xml version="1.0" encoding="UTF-8" standalone="no"?>
<!DOCTYPE svg PUBLIC "-//W3C//DTD SVG 1.1//EN"
 "http://www.w3.org/Graphics/SVG/1.1/DTD/svg11.dtd">
<!-- Generated by graphviz version 2.43.0 (0)
 -->
<!-- Title: test/unitTest/TEST_Sched_EntrySequence/test/test_Sched_EntrySequence.c Pages: 1 -->
<!--zoomable 269 -->

<svg id="main" version="1.1" xmlns="http://www.w3.org/2000/svg" xmlns:xlink="http://www.w3.org/1999/xlink" xml:space="preserve" onload="init(evt)">

<style type="text/css"><![CDATA[
.node, .edge {opacity: 0.7;}
.node.selected, .edge.selected {opacity: 1;}
.edge:hover path { stroke: red; }
.edge:hover polygon { stroke: red; fill: red; }
]]></style>

<defs>
  <circle id="rim" cx="0" cy="0" r="7"/>
  <circle id="rim2" cx="0" cy="0" r="3.5"/>
  <g id="zoomPlus">
    <use xlink:href="#rim" fill="#404040"><set attributeName="fill" to="#808080" begin="zoomplus.mouseover" end="zoomplus.mouseout"/></use>
    <path d="M-4,0h8M0,-4v8" fill="none" stroke="white" stroke-width="1.5" pointer-events="none"/>
  </g>
  <g id="zoomMin">
    <use xlink:href="#rim" fill="#404040"><set attributeName="fill" to="#808080" begin="zoomminus.mouseover" end="zoomminus.mouseout"/></use>
    <path d="M-4,0h8" fill="none" stroke="white" stroke-width="1.5" pointer-events="none"/>
  </g>
  <g id="arrowUp" transform="translate(30 24)">
    <use xlink:href="#rim"/>
    <path pointer-events="none" fill="none" stroke="white" stroke-width="1.5" d="M0,-3.0v7 M-2.5,-0.5L0,-3.0L2.5,-0.5"/>
  </g>
  <g id="arrowRight" transform="rotate(90) translate(36 -43)">
    <use xlink:href="#rim"/>
    <path pointer-events="none" fill="none" stroke="white" stroke-width="1.5" d="M0,-3.0v7 M-2.5,-0.5L0,-3.0L2.5,-0.5"/>
  </g>
  <g id="arrowDown" transform="rotate(180) translate(-30 -48)">
    <use xlink:href="#rim"/>
    <path pointer-events="none" fill="none" stroke="white" stroke-width="1.5" d="M0,-3.0v7 M-2.5,-0.5L0,-3.0L2.5,-0.5"/>
  </g>
  <g id="arrowLeft" transform="rotate(270) translate(-36 17)">
    <use xlink:href="#rim"/>
    <path pointer-events="none" fill="none" stroke="white" stroke-width="1.5" d="M0,-3.0v7 M-2.5,-0.5L0,-3.0L2.5,-0.5"/>
  </g>
  <g id="resetDef">
    <use xlink:href="#rim2" fill="#404040"><set attributeName="fill" to="#808080" begin="reset.mouseover" end="reset.mouseout"/></use>
  </g>
</defs>
<script type="application/ecmascript">
var viewWidth = 576;
var viewHeight = 269;
var sectionId = 'dynsection-0';
</script>
<script type="application/ecmascript" xlink:href="svg.min.js"/>
<svg id="graph" class="graph">
<g id="viewport">
<title>test/unitTest/TEST_Sched_EntrySequence/test/test_Sched_EntrySequence.c</title>
<!-- Node1 -->
<g id="Node000001" class="node">
<title>Node1</title>
<g id="a_Node000001"><a xlink:title="Unit tests for Sched_EntrySequence.">
<polygon fill="#999999" stroke="#666666" points="363.5,-261 182.5,-261 182.5,-220 363.5,-220 363.5,-261"/>
<text text-anchor="start" x="190.5" y="-249" font-family="Helvetica,sans-Serif" font-size="10.00">test/unitTest/TEST</text>
<text text-anchor="start" x="190.5" y="-238" font-family="Helvetica,sans-Serif" font-size="10.00">_Sched_EntrySequence</text>
<text text-anchor="middle" x="273" y="-227" font-family="Helvetica,sans-Serif" font-size="10.00">/test/test_Sched_EntrySequence.c</text>
</a>
</g>
</g>
<!-- Node2 -->
<g id="Node000002" class="node">
<title>Node2</title>
<g id="a_Node000002"><a xlink:href="Sched__EntrySequence_8h.html" target="_top" xlink:title=" ">
<polygon fill="white" stroke="#666666" points="148.5,-184 15.5,-184 15.5,-165 148.5,-165 148.5,-184"/>
<text text-anchor="middle" x="82" y="-172" font-family="Helvetica,sans-Serif" font-size="10.00">Sched_EntrySequence.h</text>
</a>
</g>
</g>
<!-- Node1&#45;&gt;Node2 -->
<g id="edge1_Node000001_Node000002" class="edge">
<title>Node1&#45;&gt;Node2</title>
<g id="a_edge1_Node000001_Node000002"><a xlink:title=" ">
<path fill="none" stroke="#63b8ff" d="M214.66,-219.95C182.71,-209.24 144.18,-196.34 116.9,-187.19"/>
<polygon fill="#63b8ff" stroke="#63b8ff" points="117.98,-183.87 107.39,-184.01 115.76,-190.5 117.98,-183.87"/>
</a>
</g>
</g>
<!-- Node8 -->
<g id="Node000008" class="node">
<title>Node8</title>
<g id="a_Node000008"><a xlink:title=" ">
<polygon fill="#e0e0e0" stroke="#999999" points="215.5,-184 166.5,-184 166.5,-165 215.5,-165 215.5,-184"/>
<text text-anchor="middle" x="191" y="-172" font-family="Helvetica,sans-Serif" font-size="10.00">unity.h</text>
</a>
</g>
</g>
<!-- Node1&#45;&gt;Node8 -->
<g id="edge10_Node000001_Node000008" class="edge">
<title>Node1&#45;&gt;Node8</title>
<g id="a_edge10_Node000001_Node000008"><a xlink:title=" ">
<path fill="none" stroke="#63b8ff" d="M247.95,-219.95C235.79,-210.46 221.41,-199.24 210.15,-190.44"/>
<polygon fill="#63b8ff" stroke="#63b8ff" points="212.26,-187.65 202.22,-184.26 207.95,-193.17 212.26,-187.65"/>
</a>
</g>
</g>
<!-- Node9 -->
<g id="Node000009" class="node">
<title>Node9</title>
<g id="a_Node000009"><a xlink:title=" ">
<polygon fill="#e0e0e0" stroke="#999999" points="312,-184 234,-184 234,-165 312,-165 312,-184"/>
<text text-anchor="middle" x="273" y="-172" font-family="Helvetica,sans-Serif" font-size="10.00">mock_Mcu.h</text>
</a>
</g>
</g>
<!-- Node1&#45;&gt;Node9 -->
<g id="edge11_Node000001_Node000009" class="edge">
<title>Node1&#45;&gt;Node9</title>
<g id="a_edge11_Node000001_Node000009"><a xlink:title=" ">
<path fill="none" stroke="#63b8ff" d="M273,-219.95C273,-211.85 273,-202.5 273,-194.47"/>
<polygon fill="#63b8ff" stroke="#63b8ff" points="276.5,-194.26 273,-184.26 269.5,-194.26 276.5,-194.26"/>
</a>
</g>
</g>
<!-- Node10 -->
<g id="Node000010" class="node">
<title>Node10</title>
<g id="a_Node000010"><a xlink:title=" ">
<polygon fill="#e0e0e0" stroke="#999999" points="439.5,-184 330.5,-184 330.5,-165 439.5,-165 439.5,-184"/>
<text text-anchor="middle" x="385" y="-172" font-family="Helvetica,sans-Serif" font-size="10.00">mock_Sched_Cfg.h</text>
</a>
</g>
</g>
<!-- Node1&#45;&gt;Node10 -->
<g id="edge12_Node000001_Node000010" class="edge">
<title>Node1&#45;&gt;Node10</title>
<g id="a_edge12_Node000001_Node000010"><a xlink:title=" ">
<path fill="none" stroke="#63b8ff" d="M307.21,-219.95C324.58,-210.03 345.26,-198.21 360.93,-189.25"/>
<polygon fill="#63b8ff" stroke="#63b8ff" points="363.02,-192.09 369.96,-184.09 359.55,-186.01 363.02,-192.09"/>
</a>
</g>
</g>
<!-- Node11 -->
<g id="Node000011" class="node">
<title>Node11</title>
<g id="a_Node000011"><a xlink:title=" ">
<polygon fill="#e0e0e0" stroke="#999999" points="568,-184 458,-184 458,-165 568,-165 568,-184"/>
<text text-anchor="middle" x="513" y="-172" font-family="Helvetica,sans-Serif" font-size="10.00">mock_Sched_Priv.h</text>
</a>
</g>
</g>
<!-- Node1&#45;&gt;Node11 -->
<g id="edge13_Node000001_Node000011" class="edge">
<title>Node1&#45;&gt;Node11</title>
<g id="a_edge13_Node000001_Node000011"><a xlink:title=" ">
<path fill="none" stroke="#63b8ff" d="M346.31,-219.95C387.34,-209.01 436.99,-195.77 471.38,-186.6"/>
<polygon fill="#63b8ff" stroke="#63b8ff" points="472.33,-189.97 481.09,-184.01 470.53,-183.2 472.33,-189.97"/>
</a>
</g>
</g>
<!-- Node3 -->
<g id="Node000003" class="node">
<title>Node3</title>
<g id="a_Node000003"><a xlink:href="Mcu_8h.html" target="_top" xlink:title=" ">
<polygon fill="white" stroke="#666666" points="46,-129 0,-129 0,-110 46,-110 46,-129"/>
<text text-anchor="middle" x="23" y="-117" font-family="Helvetica,sans-Serif" font-size="10.00">Mcu.h</text>
</a>
</g>
</g>
<!-- Node2&#45;&gt;Node3 -->
<g id="edge2_Node000002_Node000003" class="edge">
<title>Node2&#45;&gt;Node3</title>
<g id="a_edge2_Node000002_Node000003"><a xlink:title=" ">
<path fill="none" stroke="#63b8ff" d="M72.52,-164.98C63.8,-157.15 50.66,-145.34 40.1,-135.86"/>
<polygon fill="#63b8ff" stroke="#63b8ff" points="42.43,-133.25 32.65,-129.17 37.75,-138.46 42.43,-133.25"/>
</a>
</g>
</g>
<!-- Node5 -->
<g id="Node000005" class="node">
<title>Node5</title>
<g id="a_Node000005"><a xlink:href="test_2unitTest_2TEST__Sched__EntrySequence_2src_2Sched__Cfg_8h.html" target="_top" xlink:title=" ">
<polygon fill="white" stroke="#666666" points="120.5,-74 43.5,-74 43.5,-55 120.5,-55 120.5,-74"/>
<text text-anchor="middle" x="82" y="-62" font-family="Helvetica,sans-Serif" font-size="10.00">Sched_Cfg.h</text>
</a>
</g>
</g>
<!-- Node2&#45;&gt;Node5 -->
<g id="edge4_Node000002_Node000005" class="edge">
<title>Node2&#45;&gt;Node5</title>
<g id="a_edge4_Node000002_Node000005"><a xlink:title=" ">
<path fill="none" stroke="#63b8ff" d="M82,-164.66C82,-147.17 82,-107.8 82,-84.27"/>
<polygon fill="#63b8ff" stroke="#63b8ff" points="85.5,-84.16 82,-74.16 78.5,-84.16 85.5,-84.16"/>
</a>
</g>
</g>
<!-- Node6 -->
<g id="Node000006" class="node">
<title>Node6</title>
<g id="a_Node000006"><a xlink:href="test_2unitTest_2TEST__Sched__EntrySequence_2src_2Sched__Priv_8h.html" target="_top" xlink:title=" ">
<polygon fill="white" stroke="#666666" points="188,-129 110,-129 110,-110 188,-110 188,-129"/>
<text text-anchor="middle" x="149" y="-117" font-family="Helvetica,sans-Serif" font-size="10.00">Sched_Priv.h</text>
</a>
</g>
</g>
<!-- Node2&#45;&gt;Node6 -->
<g id="edge6_Node000002_Node000006" class="edge">
<title>Node2&#45;&gt;Node6</title>
<g id="a_edge6_Node000002_Node000006"><a xlink:title=" ">
<path fill="none" stroke="#63b8ff" d="M92.76,-164.98C102.77,-157.07 117.89,-145.11 129.93,-135.58"/>
<polygon fill="#63b8ff" stroke="#63b8ff" points="132.37,-138.12 138.04,-129.17 128.03,-132.63 132.37,-138.12"/>
</a>
</g>
</g>
<!-- Node4 -->
<g id="Node000004" class="node">
<title>Node4</title>
<g id="a_Node000004"><a xlink:title=" ">
<polygon fill="#e0e0e0" stroke="#999999" points="108.5,-19 55.5,-19 55.5,0 108.5,0 108.5,-19"/>
<text text-anchor="middle" x="82" y="-7" font-family="Helvetica,sans-Serif" font-size="10.00">stdint.h</text>
</a>
</g>
</g>
<!-- Node3&#45;&gt;Node4 -->
<g id="edge3_Node000003_Node000004" class="edge">
<title>Node3&#45;&gt;Node4</title>
<g id="a_edge3_Node000003_Node000004"><a xlink:title=" ">
<path fill="none" stroke="#63b8ff" d="M22.79,-109.71C22.86,-96.9 24.39,-72.7 34,-55 40.37,-43.26 51.02,-32.92 60.66,-25.17"/>
<polygon fill="#63b8ff" stroke="#63b8ff" points="62.89,-27.87 68.75,-19.05 58.66,-22.29 62.89,-27.87"/>
</a>
</g>
</g>
<!-- Node5&#45;&gt;Node4 -->
<g id="edge5_Node000005_Node000004" class="edge">
<title>Node5&#45;&gt;Node4</title>
<g id="a_edge5_Node000005_Node000004"><a xlink:title=" ">
<path fill="none" stroke="#63b8ff" d="M82,-54.75C82,-47.8 82,-37.85 82,-29.13"/>
<polygon fill="#63b8ff" stroke="#63b8ff" points="85.5,-29.09 82,-19.09 78.5,-29.09 85.5,-29.09"/>
</a>
</g>
</g>
<!-- Node6&#45;&gt;Node4 -->
<g id="edge9_Node000006_Node000004" class="edge">
<title>Node6&#45;&gt;Node4</title>
<g id="a_edge9_Node000006_Node000004"><a xlink:title=" ">
<path fill="none" stroke="#63b8ff" d="M147.68,-109.7C145.44,-96.87 140.03,-72.64 129,-55 121.97,-43.77 111.45,-33.44 102.14,-25.57"/>
<polygon fill="#63b8ff" stroke="#63b8ff" points="104.05,-22.62 94.07,-19.08 99.67,-28.07 104.05,-22.62"/>
</a>
</g>
</g>
<!-- Node6&#45;&gt;Node5 -->
<g id="edge7_Node000006_Node000005" class="edge">
<title>Node6&#45;&gt;Node5</title>
<g id="a_edge7_Node000006_Node000005"><a xlink:title=" ">
<path fill="none" stroke="#63b8ff" d="M138.24,-109.98C128.23,-102.07 113.11,-90.11 101.07,-80.58"/>
<polygon fill="#63b8ff" stroke="#63b8ff" points="102.97,-77.63 92.96,-74.17 98.63,-83.12 102.97,-77.63"/>
</a>
</g>
</g>
<!-- Node7 -->
<g id="Node000007" class="node">
<title>Node7</title>
<g id="a_Node000007"><a xlink:title=" ">
<polygon fill="#e0e0e0" stroke="#999999" points="239,-74 177,-74 177,-55 239,-55 239,-74"/>
<text text-anchor="middle" x="208" y="-62" font-family="Helvetica,sans-Serif" font-size="10.00">stdbool.h</text>
</a>
</g>
</g>
<!-- Node6&#45;&gt;Node7 -->
<g id="edge8_Node000006_Node000007" class="edge">
<title>Node6&#45;&gt;Node7</title>
<g id="a_edge8_Node000006_Node000007"><a xlink:title=" ">
<path fill="none" stroke="#63b8ff" d="M158.48,-109.98C167.2,-102.15 180.34,-90.34 190.9,-80.86"/>
<polygon fill="#63b8ff" stroke="#63b8ff" points="193.25,-83.46 198.35,-74.17 188.57,-78.25 193.25,-83.46"/>
</a>
</g>
</g>
</g>
</svg>

<g id="navigator" transform="translate(0 0)" fill="#404254">
  <rect fill="#f2f5e9" fill-opacity="0.5" stroke="#606060" stroke-width=".5" x="0" y="0" width="60" height="60"/>
  <use id="zoomplus" xlink:href="#zoomPlus" x="17" y="9" onmousedown="handleZoom(evt,'in')"/>
  <use id="zoomminus" xlink:href="#zoomMin" x="42" y="9" onmousedown="handleZoom(evt,'out')"/>
  <use id="reset" xlink:href="#resetDef" x="30" y="36" onmousedown="handleReset()"/>
   <use id="arrowup" xlink:href="#arrowUp" x="0" y="0" onmousedown="handlePan(0,-1)"/>
  <use id="arrowright" xlink:href="#arrowRight" x="0" y="0" onmousedown="handlePan(1,0)"/>
  <use id="arrowdown" xlink:href="#arrowDown" x="0" y="0" onmousedown="handlePan(0,1)"/>
  <use id="arrowleft" xlink:href="#arrowLeft" x="0" y="0" onmousedown="handlePan(-1,0)"/>
</g>
<svg viewBox="0 0 15 15" width="100%" height="30px" preserveAspectRatio="xMaxYMin meet">
 <g id="arrow_out" transform="scale(0.3 0.3)">
  <a xlink:href="test__Sched__EntrySequence_8c__incl_org.svg" target="_base">
   <rect id="button" ry="5" rx="5" y="6" x="6" height="38" width="38"
        fill="#f2f5e9" fill-opacity="0.5" stroke="#606060" stroke-width="1.0"/>
   <path id="arrow"
     d="M 11.500037,31.436501 C 11.940474,20.09759 22.043105,11.32322 32.158766,21.979434 L 37.068811,17.246167 C 37.068811,17.246167 37.088388,32 37.088388,32 L 22.160133,31.978069 C 22.160133,31.978069 26.997745,27.140456 26.997745,27.140456 C 18.528582,18.264221 13.291696,25.230495 11.500037,31.436501 z"
     style="fill:#404040;"/>
  </a>
 </g>
</svg>

<style type='text/css'>
<![CDATA[
[data-mouse-over-selected='false'] { opacity: 0.7; }
[data-mouse-over-selected='true']  { opacity: 1.0; }
]]>
</style>
<script type="application/ecmascript"><![CDATA[
document.addEventListener('DOMContentLoaded', (event) => {
  highlightEdges();
  highlightAdjacentNodes();
});
]]></script>
</svg>
